<?xml version="1.0" encoding="UTF-8"?>
<svg width="90px" height="82px" viewBox="0 0 90 82" version="1.1" xmlns="http://www.w3.org/2000/svg" xmlns:xlink="http://www.w3.org/1999/xlink">
    <!-- Generator: Sketch 52.6 (67491) - http://www.bohemiancoding.com/sketch -->
    <title>brain</title>
    <desc>Created with Sketch.</desc>
    <g id="Page-1" stroke="none" stroke-width="1" fill="none" fill-rule="evenodd">
        <g id="brain" transform="translate(45.000000, 41.000000) scale(-1, 1) translate(-45.000000, -41.000000) " fill="#FA2EF5">
            <g id="noun_Brain_1111386" transform="translate(45.000000, 41.000000) scale(-1, 1) translate(-45.000000, -41.000000) ">
                <circle id="Oval" cx="62.924" cy="5.759" r="3.002"></circle>
                <circle id="Oval" cx="71.614" cy="10.88" r="1.877"></circle>
                <circle id="Oval" cx="63.769" cy="20.766" r="2.157"></circle>
                <circle id="Oval" cx="42.848" cy="23.232" r="2.515"></circle>
                <circle id="Oval" cx="34.191" cy="40.323" r="2.08"></circle>
                <circle id="Oval" cx="40.696" cy="42.572" r="2.152"></circle>
                <circle id="Oval" cx="37.649" cy="27.58" r="1.62"></circle>
                <circle id="Oval" cx="19.925" cy="24.857" r="1.934"></circle>
                <circle id="Oval" cx="18.16" cy="16.553" r="2.055"></circle>
                <circle id="Oval" cx="13.323" cy="9.057" r="1.62"></circle>
                <circle id="Oval" cx="20.336" cy="4.85" r="1.523"></circle>
                <circle id="Oval" cx="24.93" cy="6.833" r="1.378"></circle>
                <circle id="Oval" cx="29.573" cy="13.7" r="1.523"></circle>
                <circle id="Oval" cx="23.383" cy="31.013" r="2.104"></circle>
                <circle id="Oval" cx="8.173" cy="24.016" r="2.515"></circle>
                <circle id="Oval" cx="2.249" cy="29.2" r="2.249"></circle>
                <circle id="Oval" cx="9.914" cy="37.083" r="2.273"></circle>
                <circle id="Oval" cx="21.654" cy="36.539" r="1.729"></circle>
                <circle id="Oval" cx="33.442" cy="50.019" r="1.33"></circle>
                <circle id="Oval" cx="47.853" cy="56.983" r="1.814"></circle>
                <circle id="Oval" cx="55.011" cy="51.615" r="1.233"></circle>
                <circle id="Oval" cx="52.278" cy="43.805" r="2.176"></circle>
                <circle id="Oval" cx="50.513" cy="30.675" r="2.007"></circle>
                <circle id="Oval" cx="62.265" cy="31.207" r="1.668"></circle>
                <circle id="Oval" cx="65.568" cy="37.963" r="1.799"></circle>
                <circle id="Oval" cx="73.683" cy="36.58" r="1.383"></circle>
                <circle id="Oval" cx="88.259" cy="42.814" r="1.741"></circle>
                <circle id="Oval" cx="76.735" cy="47.118" r="2.104"></circle>
                <circle id="Oval" cx="80.993" cy="30.058" r="1.149"></circle>
                <circle id="Oval" cx="87.328" cy="33.033" r="1.826"></circle>
                <circle id="Oval" cx="80.763" cy="18.899" r="1.112"></circle>
                <circle id="Oval" cx="73.34" cy="29.306" r="1.726"></circle>
                <circle id="Oval" cx="56.002" cy="19.624" r="1.838"></circle>
                <circle id="Oval" cx="48.627" cy="11.234" r="1.523"></circle>
                <circle id="Oval" cx="36.089" cy="8.175" r="1.56"></circle>
                <circle id="Oval" cx="44.613" cy="2.287" r="1.765"></circle>
                <circle id="Oval" cx="30.879" cy="21.728" r="1.717"></circle>
                <circle id="Oval" cx="23.334" cy="20.181" r="1.282"></circle>
                <circle id="Oval" cx="44.782" cy="35.874" r="1.644"></circle>
                <circle id="Oval" cx="56.824" cy="39.269" r="1.306"></circle>
                <circle id="Oval" cx="63.916" cy="43.667" r="1.652"></circle>
                <circle id="Oval" cx="67.072" cy="59.721" r="1.504"></circle>
                <circle id="Oval" cx="45.991" cy="66.148" r="1.209"></circle>
                <circle id="Oval" cx="51.021" cy="78.915" r="1"></circle>
                <circle id="Oval" cx="54.672" cy="80.584" r="1.185"></circle>
                <circle id="Oval" cx="55.398" cy="73.644" r="1"></circle>
                <circle id="Oval" cx="52.883" cy="66.027" r="1.088"></circle>
                <circle id="Oval" cx="53.415" cy="60.615" r="1"></circle>
                <circle id="Oval" cx="45.145" cy="61.848" r="1.233"></circle>
                <circle id="Oval" cx="43.67" cy="50.43" r="1"></circle>
                <circle id="Oval" cx="27.44" cy="41.851" r="1.277"></circle>
                <circle id="Oval" cx="28.516" cy="32.283" r="1.076"></circle>
                <circle id="Oval" cx="37.637" cy="12.092" r="1.608"></circle>
                <circle id="Oval" cx="34.965" cy="1.296" r="1.064"></circle>
                <circle id="Oval" cx="83.29" cy="24.884" r="1.149"></circle>
                <circle id="Oval" cx="83.955" cy="47.722" r="1.548"></circle>
                <circle id="Oval" cx="71.013" cy="39.143" r="1.18"></circle>
                <circle id="Oval" cx="60.536" cy="24.884" r="1.149"></circle>
                <circle id="Oval" cx="59.956" cy="12.672" r="1.439"></circle>
                <circle id="Oval" cx="73.683" cy="21.394" r="1.383"></circle>
                <circle id="Oval" cx="41.895" cy="54.41" r="1.562"></circle>
                <circle id="Oval" cx="19.279" cy="41.694" r="1.12"></circle>
                <circle id="Oval" cx="13.215" cy="42.1" r="1.028"></circle>
                <circle id="Oval" cx="8.778" cy="14.837" r="1.136"></circle>
                <circle id="Oval" cx="54.648" cy="1.586" r="1.354"></circle>
                <circle id="Oval" cx="56.244" cy="58.217" r="1"></circle>
                <path d="M54.673,80.759 C54.668,80.759 54.661,80.759 54.655,80.758 C54.557,80.748 54.487,80.661 54.498,80.564 L55.224,73.624 C55.235,73.529 55.326,73.458 55.416,73.467 C55.514,73.477 55.584,73.564 55.573,73.661 L54.847,80.601 C54.838,80.692 54.762,80.759 54.673,80.759 Z" id="Path"></path>
                <path d="M51.022,79.091 C50.982,79.091 50.942,79.078 50.909,79.05 C50.835,78.988 50.824,78.877 50.887,78.802 L55.264,73.53 C55.326,73.455 55.436,73.444 55.511,73.507 C55.585,73.569 55.596,73.68 55.533,73.755 L51.156,79.027 C51.122,79.07 51.072,79.091 51.022,79.091 Z" id="Path"></path>
                <path d="M51.022,79.091 C50.952,79.091 50.886,79.049 50.858,78.98 L45.827,66.212 C45.791,66.121 45.835,66.02 45.926,65.984 C46.013,65.948 46.118,65.992 46.154,66.083 L51.185,78.851 C51.221,78.942 51.177,79.043 51.086,79.079 C51.066,79.087 51.044,79.091 51.022,79.091 Z" id="Path"></path>
                <path d="M45.991,66.324 C45.895,66.324 45.816,66.247 45.815,66.151 C45.814,66.054 45.891,65.974 45.988,65.972 L52.879,65.851 C52.99,65.856 53.056,65.927 53.058,66.024 C53.059,66.121 52.982,66.201 52.885,66.203 L45.994,66.324 C45.992,66.324 45.992,66.324 45.991,66.324 Z" id="Path"></path>
                <path d="M55.398,73.819 C55.324,73.819 55.255,73.772 55.23,73.698 L52.714,66.081 C52.684,65.989 52.735,65.889 52.827,65.859 C52.919,65.827 53.019,65.879 53.05,65.971 L55.566,73.588 C55.596,73.68 55.545,73.78 55.453,73.81 C55.435,73.817 55.416,73.819 55.398,73.819 Z" id="Path"></path>
                <path d="M55.398,73.819 C55.36,73.819 55.321,73.807 55.288,73.781 L45.881,66.285 C45.805,66.225 45.793,66.114 45.854,66.038 C45.914,65.962 46.024,65.949 46.101,66.011 L55.508,73.507 C55.584,73.567 55.596,73.678 55.535,73.754 C55.501,73.797 55.45,73.819 55.398,73.819 Z" id="Path"></path>
                <path d="M54.673,80.759 C54.614,80.759 54.555,80.729 54.522,80.674 L45.84,66.238 C45.791,66.155 45.817,66.046 45.9,65.997 C45.984,65.948 46.092,65.973 46.142,66.057 L54.824,80.493 C54.873,80.576 54.847,80.685 54.764,80.734 C54.734,80.751 54.704,80.759 54.673,80.759 Z" id="Path"></path>
                <path d="M54.673,80.759 C54.648,80.759 54.624,80.754 54.6,80.743 L50.949,79.075 C50.861,79.034 50.821,78.93 50.862,78.842 C50.902,78.754 51.01,78.715 51.094,78.755 L54.745,80.423 C54.833,80.464 54.873,80.568 54.832,80.656 C54.803,80.721 54.739,80.759 54.673,80.759 Z" id="Path"></path>
                <path d="M51.022,79.091 C50.935,79.091 50.861,79.028 50.847,78.941 L47.678,57.009 C47.664,56.913 47.732,56.823 47.828,56.81 C47.923,56.794 48.012,56.862 48.027,56.958 L51.196,78.89 C51.21,78.986 51.142,79.076 51.046,79.089 C51.038,79.09 51.03,79.091 51.022,79.091 Z" id="Path"></path>
                <path d="M53.415,60.791 C53.382,60.791 53.349,60.782 53.319,60.762 L47.757,57.13 C47.676,57.077 47.653,56.968 47.706,56.887 C47.757,56.807 47.865,56.782 47.949,56.836 L53.511,60.468 C53.592,60.521 53.615,60.63 53.562,60.711 C53.529,60.763 53.473,60.791 53.415,60.791 Z" id="Path"></path>
                <path d="M52.882,66.203 C52.877,66.203 52.871,66.203 52.864,66.202 C52.768,66.192 52.698,66.106 52.707,66.01 L53.24,60.599 C53.248,60.508 53.325,60.44 53.415,60.44 C53.42,60.44 53.426,60.44 53.433,60.441 C53.529,60.451 53.599,60.537 53.59,60.633 L53.057,66.044 C53.048,66.135 52.971,66.203 52.882,66.203 Z" id="Path"></path>
                <path d="M51.022,79.091 C51.014,79.091 51.006,79.09 50.997,79.089 C50.901,79.075 50.833,78.986 50.847,78.89 L52.708,66.001 C52.723,65.905 52.807,65.832 52.907,65.853 C53.003,65.867 53.071,65.956 53.057,66.052 L51.196,78.941 C51.182,79.028 51.108,79.091 51.022,79.091 Z" id="Path"></path>
                <path d="M54.673,80.759 C54.585,80.759 54.509,80.694 54.498,80.604 L52.708,66.047 C52.696,65.951 52.764,65.863 52.861,65.851 C52.97,65.843 53.045,65.908 53.057,66.004 L54.847,80.561 C54.859,80.657 54.791,80.745 54.694,80.757 C54.686,80.759 54.68,80.759 54.673,80.759 Z" id="Path"></path>
                <path d="M52.882,66.203 C52.853,66.203 52.826,66.196 52.798,66.182 L45.06,62.004 C44.975,61.958 44.943,61.851 44.989,61.766 C45.037,61.681 45.142,61.651 45.228,61.695 L52.966,65.873 C53.051,65.919 53.083,66.026 53.037,66.111 C53.004,66.169 52.944,66.203 52.882,66.203 Z" id="Path"></path>
                <path d="M45.145,62.025 C45.116,62.025 45.086,62.018 45.06,62.003 C44.975,61.956 44.945,61.848 44.991,61.763 L47.699,56.897 C47.747,56.812 47.857,56.78 47.938,56.829 C48.023,56.876 48.053,56.984 48.007,57.069 L45.299,61.935 C45.265,61.992 45.206,62.025 45.145,62.025 Z" id="Path"></path>
                <path d="M47.853,57.159 C47.799,57.159 47.747,57.134 47.711,57.088 C47.653,57.01 47.67,56.9 47.747,56.842 L54.905,51.499 C54.983,51.443 55.093,51.457 55.152,51.535 C55.21,51.613 55.193,51.723 55.116,51.781 L47.958,57.124 C47.927,57.147 47.89,57.159 47.853,57.159 Z" id="Path"></path>
                <path d="M67.071,59.896 C67.037,59.896 67.004,59.886 66.973,59.866 L54.912,51.786 C54.831,51.732 54.809,51.622 54.864,51.542 C54.916,51.46 55.029,51.44 55.107,51.493 L67.168,59.573 C67.249,59.627 67.271,59.737 67.216,59.817 C67.184,59.869 67.128,59.896 67.071,59.896 Z" id="Path"></path>
                <path d="M67.071,59.896 C67.063,59.896 67.055,59.895 67.046,59.895 L56.22,58.391 C56.124,58.377 56.056,58.289 56.07,58.192 C56.084,58.095 56.172,58.034 56.269,58.042 L67.096,59.546 C67.192,59.56 67.26,59.648 67.246,59.745 C67.233,59.832 67.158,59.896 67.071,59.896 Z" id="Path"></path>
                <path d="M53.415,60.791 C53.366,60.791 53.316,60.77 53.28,60.729 C53.218,60.655 53.226,60.543 53.301,60.481 L56.13,58.082 C56.204,58.02 56.316,58.029 56.379,58.102 C56.441,58.176 56.433,58.288 56.358,58.35 L53.529,60.749 C53.496,60.778 53.455,60.791 53.415,60.791 Z" id="Path"></path>
                <path d="M53.415,60.791 C53.405,60.791 53.394,60.79 53.385,60.788 C53.289,60.771 53.226,60.679 53.242,60.584 L54.837,51.608 C54.853,51.513 54.943,51.442 55.04,51.466 C55.136,51.483 55.199,51.575 55.183,51.67 L53.588,60.646 C53.573,60.732 53.499,60.791 53.415,60.791 Z" id="Path"></path>
                <path d="M45.991,66.324 C45.959,66.324 45.926,66.316 45.898,66.297 C45.816,66.246 45.791,66.138 45.842,66.055 L54.862,51.547 C54.914,51.465 55.021,51.436 55.105,51.491 C55.187,51.542 55.212,51.65 55.161,51.733 L46.141,66.241 C46.106,66.294 46.05,66.324 45.991,66.324 Z" id="Path"></path>
                <path d="M45.991,66.324 C45.909,66.324 45.834,66.266 45.818,66.182 L44.972,61.883 C44.954,61.788 45.016,61.695 45.111,61.677 C45.218,61.656 45.299,61.721 45.318,61.816 L46.164,66.115 C46.182,66.21 46.12,66.303 46.025,66.321 C46.013,66.322 46.002,66.324 45.991,66.324 Z" id="Path"></path>
                <path d="M45.145,62.025 C45.078,62.025 45.013,61.986 44.984,61.919 L41.734,54.48 C41.694,54.391 41.735,54.288 41.825,54.248 C41.91,54.21 42.016,54.249 42.056,54.339 L45.306,61.778 C45.346,61.867 45.305,61.97 45.215,62.01 C45.193,62.02 45.168,62.025 45.145,62.025 Z" id="Path"></path>
                <path d="M41.895,54.586 C41.87,54.586 41.847,54.581 41.824,54.571 C41.735,54.531 41.695,54.427 41.735,54.339 L43.51,50.36 C43.55,50.269 43.654,50.231 43.742,50.271 C43.831,50.311 43.871,50.415 43.831,50.503 L42.056,54.482 C42.027,54.547 41.962,54.586 41.895,54.586 Z" id="Path"></path>
                <path d="M43.67,50.606 C43.618,50.606 43.566,50.583 43.531,50.537 C43.471,50.46 43.486,50.349 43.563,50.29 L52.172,43.665 C52.248,43.605 52.359,43.619 52.418,43.697 C52.478,43.774 52.463,43.885 52.386,43.944 L43.777,50.569 C43.746,50.595 43.707,50.606 43.67,50.606 Z" id="Path"></path>
                <path d="M52.279,43.981 C52.183,43.981 52.104,43.903 52.103,43.807 C52.102,43.71 52.18,43.63 52.276,43.629 L63.913,43.491 C63.914,43.491 63.916,43.491 63.916,43.491 C64.012,43.491 64.091,43.569 64.092,43.665 C64.093,43.762 64.015,43.842 63.919,43.843 L52.282,43.981 C52.28,43.981 52.279,43.981 52.279,43.981 Z" id="Path"></path>
                <path d="M76.734,47.293 C76.719,47.293 76.704,47.291 76.689,47.287 L63.871,43.837 C63.776,43.812 63.721,43.715 63.746,43.621 C63.773,43.528 63.871,43.473 63.962,43.497 L76.78,46.947 C76.875,46.972 76.93,47.069 76.905,47.163 C76.882,47.242 76.812,47.293 76.734,47.293 Z" id="Path"></path>
                <path d="M67.071,59.896 C67.034,59.896 66.995,59.884 66.964,59.86 C66.887,59.801 66.872,59.69 66.931,59.613 L76.594,47.01 C76.654,46.932 76.764,46.917 76.841,46.978 C76.918,47.037 76.933,47.148 76.874,47.225 L67.211,59.828 C67.176,59.873 67.124,59.896 67.071,59.896 Z" id="Path"></path>
                <path d="M67.071,59.896 C66.989,59.896 66.914,59.838 66.898,59.754 L63.743,43.701 C63.725,43.606 63.787,43.513 63.882,43.495 C63.986,43.476 64.07,43.539 64.089,43.634 L67.244,59.687 C67.262,59.782 67.2,59.875 67.105,59.893 C67.093,59.895 67.082,59.896 67.071,59.896 Z" id="Path"></path>
                <path d="M55.011,51.816 C54.963,51.816 54.915,51.796 54.88,51.758 C54.814,51.685 54.821,51.575 54.894,51.509 L63.8,43.536 C63.87,43.471 63.984,43.477 64.047,43.55 C64.113,43.623 64.106,43.733 64.033,43.799 L55.127,51.772 C55.095,51.801 55.052,51.816 55.011,51.816 Z" id="Path"></path>
                <path d="M55.011,51.816 C54.938,51.816 54.871,51.771 54.845,51.698 L52.113,43.863 C52.081,43.772 52.129,43.671 52.222,43.639 C52.315,43.609 52.413,43.655 52.446,43.748 L55.178,51.583 C55.21,51.674 55.162,51.775 55.069,51.807 C55.049,51.812 55.03,51.816 55.011,51.816 Z" id="Path"></path>
                <path d="M83.955,47.898 C83.951,47.898 83.945,47.898 83.94,47.897 L76.719,47.292 C76.623,47.284 76.551,47.199 76.558,47.102 C76.566,47.006 76.631,46.927 76.749,46.941 L83.97,47.546 C84.066,47.554 84.138,47.639 84.131,47.736 C84.123,47.829 84.046,47.898 83.955,47.898 Z" id="Path"></path>
                <path d="M83.955,47.898 C83.914,47.898 83.873,47.884 83.84,47.854 C83.766,47.79 83.759,47.679 83.824,47.606 L88.128,42.698 C88.19,42.625 88.303,42.618 88.375,42.682 C88.449,42.746 88.456,42.857 88.391,42.93 L84.087,47.838 C84.053,47.877 84.005,47.898 83.955,47.898 Z" id="Path"></path>
                <path d="M88.259,42.99 C88.17,42.99 88.093,42.922 88.084,42.831 L87.154,33.049 C87.144,32.952 87.216,32.867 87.312,32.857 C87.405,32.841 87.495,32.918 87.503,33.016 L88.433,42.798 C88.443,42.895 88.371,42.98 88.275,42.99 C88.27,42.99 88.264,42.99 88.259,42.99 Z" id="Path"></path>
                <path d="M87.329,33.208 C87.304,33.208 87.278,33.203 87.255,33.192 L80.919,30.218 C80.831,30.177 80.793,30.072 80.834,29.984 C80.877,29.897 80.982,29.86 81.068,29.899 L87.404,32.873 C87.492,32.914 87.53,33.019 87.489,33.107 C87.458,33.171 87.394,33.208 87.329,33.208 Z" id="Path"></path>
                <path d="M80.992,30.234 C80.969,30.234 80.944,30.229 80.921,30.219 C80.832,30.18 80.792,30.075 80.832,29.987 L83.13,24.812 C83.168,24.724 83.272,24.681 83.362,24.723 C83.451,24.762 83.491,24.867 83.451,24.955 L81.153,30.13 C81.124,30.195 81.06,30.234 80.992,30.234 Z" id="Path"></path>
                <path d="M83.29,25.06 C83.221,25.06 83.157,25.019 83.128,24.953 L80.601,18.968 C80.564,18.878 80.605,18.775 80.694,18.737 C80.783,18.7 80.886,18.742 80.925,18.83 L83.452,24.815 C83.489,24.905 83.448,25.008 83.359,25.046 C83.337,25.055 83.313,25.06 83.29,25.06 Z" id="Path"></path>
                <path d="M73.684,21.57 C73.611,21.57 73.544,21.525 73.518,21.453 C73.486,21.362 73.534,21.261 73.625,21.229 L80.704,18.734 C80.803,18.7 80.896,18.75 80.929,18.841 C80.961,18.932 80.913,19.033 80.822,19.065 L73.743,21.56 C73.722,21.567 73.703,21.57 73.684,21.57 Z" id="Path"></path>
                <path d="M73.684,21.57 C73.602,21.57 73.527,21.512 73.511,21.428 L71.442,10.914 C71.424,10.819 71.486,10.726 71.581,10.708 C71.685,10.69 71.769,10.751 71.788,10.847 L73.857,21.361 C73.875,21.456 73.813,21.549 73.718,21.567 C73.706,21.569 73.695,21.57 73.684,21.57 Z" id="Path"></path>
                <path d="M63.769,20.941 C63.731,20.941 63.692,20.929 63.659,20.903 C63.583,20.843 63.571,20.732 63.632,20.656 L71.477,10.771 C71.536,10.695 71.647,10.682 71.724,10.742 C71.8,10.802 71.812,10.913 71.751,10.989 L63.906,20.874 C63.872,20.919 63.822,20.941 63.769,20.941 Z" id="Path"></path>
                <path d="M63.769,20.941 C63.676,20.941 63.599,20.869 63.593,20.775 L62.748,5.769 C62.743,5.672 62.817,5.589 62.914,5.583 C63.005,5.59 63.094,5.652 63.1,5.749 L63.945,20.755 C63.951,20.852 63.876,20.935 63.779,20.941 C63.776,20.941 63.772,20.941 63.769,20.941 Z" id="Path"></path>
                <path d="M59.971,12.848 C59.948,12.848 59.924,12.843 59.902,12.834 C59.813,12.796 59.771,12.692 59.809,12.603 L62.762,5.69 C62.8,5.601 62.906,5.561 62.993,5.598 C63.082,5.636 63.124,5.74 63.086,5.829 L60.133,12.742 C60.105,12.809 60.04,12.848 59.971,12.848 Z" id="Path"></path>
                <path d="M56.003,19.8 C55.973,19.8 55.944,19.792 55.916,19.777 C55.831,19.729 55.802,19.622 55.85,19.537 L59.818,12.585 C59.865,12.5 59.975,12.471 60.057,12.52 C60.142,12.568 60.171,12.675 60.123,12.76 L56.155,19.712 C56.124,19.769 56.063,19.8 56.003,19.8 Z" id="Path"></path>
                <path d="M59.971,12.848 C59.905,12.848 59.843,12.812 59.813,12.748 L54.49,1.662 C54.447,1.574 54.485,1.469 54.572,1.427 C54.654,1.387 54.763,1.421 54.806,1.509 L60.129,12.596 C60.172,12.684 60.134,12.789 60.047,12.831 C60.023,12.843 59.997,12.848 59.971,12.848 Z" id="Path"></path>
                <path d="M62.924,5.935 C62.898,5.935 62.87,5.929 62.844,5.916 L54.568,1.742 C54.481,1.698 54.447,1.592 54.491,1.506 C54.534,1.419 54.638,1.387 54.727,1.428 L63.003,5.602 C63.09,5.646 63.124,5.752 63.08,5.838 C63.051,5.9 62.989,5.935 62.924,5.935 Z" id="Path"></path>
                <path d="M71.614,11.056 C71.584,11.056 71.552,11.048 71.525,11.032 L62.835,5.911 C62.751,5.862 62.724,5.754 62.773,5.67 C62.821,5.587 62.931,5.558 63.013,5.607 L71.703,10.728 C71.787,10.777 71.814,10.885 71.765,10.969 C71.732,11.025 71.675,11.056 71.614,11.056 Z" id="Path"></path>
                <path d="M80.763,19.075 C80.722,19.075 80.681,19.061 80.648,19.032 L71.499,11.013 C71.425,10.948 71.418,10.838 71.483,10.764 C71.545,10.692 71.658,10.685 71.73,10.748 L80.879,18.767 C80.953,18.832 80.96,18.942 80.895,19.016 C80.861,19.054 80.812,19.075 80.763,19.075 Z" id="Path"></path>
                <path d="M87.329,33.208 C87.264,33.208 87.203,33.172 87.171,33.11 L83.132,24.961 C83.089,24.874 83.125,24.768 83.212,24.725 C83.3,24.684 83.404,24.718 83.448,24.804 L87.487,32.953 C87.53,33.04 87.494,33.146 87.407,33.189 C87.382,33.202 87.355,33.208 87.329,33.208 Z" id="Path"></path>
                <path d="M44.613,2.463 C44.521,2.463 44.444,2.392 44.437,2.299 C44.43,2.202 44.504,2.118 44.601,2.111 L54.636,1.41 C54.749,1.398 54.817,1.476 54.824,1.573 C54.831,1.67 54.757,1.754 54.66,1.761 L44.625,2.462 C44.621,2.463 44.617,2.463 44.613,2.463 Z" id="Path"></path>
                <path d="M44.613,2.463 C44.608,2.463 44.601,2.463 44.595,2.462 L34.947,1.471 C34.851,1.461 34.779,1.374 34.79,1.278 C34.8,1.181 34.892,1.105 34.982,1.121 L44.63,2.112 C44.726,2.122 44.798,2.209 44.787,2.305 C44.779,2.396 44.702,2.463 44.613,2.463 Z" id="Path"></path>
                <path d="M20.336,5.026 C20.256,5.026 20.185,4.972 20.166,4.891 C20.143,4.797 20.2,4.702 20.295,4.679 L34.924,1.125 C35.017,1.1 35.114,1.16 35.136,1.255 C35.159,1.349 35.102,1.444 35.007,1.467 L20.378,5.021 C20.364,5.024 20.35,5.026 20.336,5.026 Z" id="Path"></path>
                <path d="M13.323,9.224 C13.264,9.224 13.205,9.194 13.172,9.138 C13.123,9.055 13.15,8.947 13.232,8.897 L20.245,4.699 C20.329,4.648 20.436,4.676 20.487,4.76 C20.536,4.843 20.509,4.951 20.427,5.001 L13.414,9.199 C13.385,9.215 13.353,9.224 13.323,9.224 Z" id="Path"></path>
                <path d="M8.777,15.013 C8.739,15.013 8.7,15.001 8.668,14.975 C8.591,14.915 8.579,14.805 8.638,14.728 L13.184,8.939 C13.246,8.862 13.357,8.849 13.431,8.909 C13.508,8.969 13.52,9.079 13.461,9.156 L8.915,14.945 C8.88,14.989 8.829,15.013 8.777,15.013 Z" id="Path"></path>
                <path d="M8.173,24.192 C8.169,24.192 8.165,24.192 8.162,24.191 C8.064,24.185 7.992,24.101 7.997,24.004 L8.602,14.825 C8.609,14.732 8.686,14.661 8.778,14.661 C8.782,14.661 8.786,14.661 8.789,14.662 C8.887,14.668 8.959,14.752 8.954,14.849 L8.349,24.028 C8.342,24.12 8.265,24.192 8.173,24.192 Z" id="Path"></path>
                <path d="M2.249,29.376 C2.2,29.376 2.151,29.355 2.117,29.316 C2.052,29.242 2.061,29.131 2.133,29.067 L8.057,23.883 C8.13,23.819 8.24,23.827 8.304,23.899 C8.369,23.973 8.36,24.084 8.288,24.148 L2.364,29.332 C2.331,29.361 2.29,29.376 2.249,29.376 Z" id="Path"></path>
                <path d="M9.914,37.259 C9.869,37.259 9.822,37.241 9.788,37.205 L2.123,29.322 C2.056,29.253 2.057,29.141 2.127,29.073 C2.198,29.007 2.308,29.008 2.376,29.077 L10.041,36.96 C10.108,37.029 10.107,37.141 10.037,37.209 C10.002,37.242 9.958,37.259 9.914,37.259 Z" id="Path"></path>
                <path d="M13.214,42.276 C13.156,42.276 13.101,42.248 13.067,42.197 L9.766,37.18 C9.712,37.099 9.736,36.99 9.817,36.936 C9.898,36.883 10.007,36.906 10.06,36.986 L13.361,42.003 C13.415,42.084 13.391,42.193 13.31,42.247 C13.282,42.266 13.247,42.276 13.214,42.276 Z" id="Path"></path>
                <path d="M13.214,42.276 C13.122,42.276 13.045,42.205 13.038,42.112 C13.033,42.015 13.105,41.931 13.202,41.925 L19.267,41.519 C19.384,41.509 19.448,41.586 19.455,41.683 C19.46,41.78 19.388,41.864 19.291,41.87 L13.226,42.276 C13.222,42.276 13.218,42.276 13.214,42.276 Z" id="Path"></path>
                <path d="M27.44,42.027 C27.439,42.027 27.437,42.027 27.437,42.027 L19.276,41.87 C19.178,41.868 19.101,41.788 19.103,41.691 C19.104,41.595 19.183,41.519 19.279,41.519 C19.28,41.519 19.282,41.519 19.282,41.519 L27.443,41.676 C27.541,41.678 27.618,41.758 27.616,41.855 C27.615,41.951 27.537,42.027 27.44,42.027 Z" id="Path"></path>
                <path d="M33.441,50.195 C33.387,50.195 33.334,50.17 33.299,50.124 L27.298,41.956 C27.24,41.878 27.257,41.767 27.335,41.71 C27.413,41.651 27.523,41.669 27.581,41.747 L33.582,49.915 C33.64,49.993 33.623,50.104 33.545,50.161 C33.514,50.184 33.477,50.195 33.441,50.195 Z" id="Path"></path>
                <path d="M41.895,54.586 C41.868,54.586 41.84,54.58 41.814,54.566 L33.36,50.175 C33.273,50.13 33.24,50.024 33.284,49.938 C33.331,49.852 33.438,49.818 33.522,49.863 L41.976,54.254 C42.063,54.299 42.096,54.405 42.052,54.491 C42.02,54.552 41.958,54.586 41.895,54.586 Z" id="Path"></path>
                <path d="M41.895,54.586 C41.806,54.586 41.729,54.519 41.72,54.428 L40.522,42.59 C40.512,42.493 40.582,42.407 40.679,42.397 C40.768,42.382 40.862,42.457 40.871,42.554 L42.069,54.392 C42.079,54.489 42.009,54.575 41.912,54.585 C41.907,54.586 41.9,54.586 41.895,54.586 Z" id="Path"></path>
                <path d="M40.697,42.748 C40.678,42.748 40.659,42.745 40.639,42.738 L34.134,40.489 C34.042,40.457 33.994,40.357 34.025,40.265 C34.057,40.173 34.158,40.124 34.249,40.156 L40.754,42.405 C40.846,42.437 40.894,42.537 40.863,42.629 C40.838,42.703 40.769,42.748 40.697,42.748 Z" id="Path"></path>
                <path d="M27.44,42.027 C27.359,42.027 27.287,41.971 27.268,41.89 C27.247,41.795 27.306,41.701 27.401,41.679 L34.152,40.151 C34.248,40.13 34.34,40.19 34.362,40.284 C34.383,40.379 34.324,40.473 34.229,40.495 L27.478,42.023 C27.467,42.026 27.453,42.027 27.44,42.027 Z" id="Path"></path>
                <path d="M27.44,42.027 C27.397,42.027 27.355,42.012 27.32,41.981 L21.534,36.669 C21.463,36.603 21.458,36.492 21.524,36.42 C21.59,36.35 21.7,36.343 21.773,36.409 L27.559,41.721 C27.63,41.787 27.635,41.898 27.569,41.97 C27.535,42.008 27.489,42.027 27.44,42.027 Z" id="Path"></path>
                <path d="M19.28,41.87 C19.255,41.87 19.231,41.865 19.206,41.854 C19.118,41.813 19.08,41.708 19.121,41.62 L21.495,36.465 C21.536,36.376 21.639,36.339 21.729,36.378 C21.817,36.419 21.855,36.524 21.814,36.612 L19.44,41.767 C19.41,41.832 19.345,41.87 19.28,41.87 Z" id="Path"></path>
                <path d="M19.28,41.87 C19.254,41.87 19.228,41.865 19.202,41.852 L9.836,37.241 C9.749,37.198 9.714,37.093 9.756,37.005 C9.799,36.918 9.902,36.883 9.992,36.925 L19.358,41.536 C19.445,41.579 19.48,41.684 19.438,41.772 C19.407,41.834 19.344,41.87 19.28,41.87 Z" id="Path"></path>
                <path d="M9.914,37.259 C9.847,37.259 9.783,37.221 9.753,37.155 C9.713,37.066 9.753,36.963 9.841,36.923 L23.31,30.854 C23.397,30.813 23.501,30.853 23.544,30.942 C23.584,31.031 23.544,31.134 23.456,31.174 L9.987,37.243 C9.963,37.254 9.938,37.259 9.914,37.259 Z" id="Path"></path>
                <path d="M23.383,31.189 C23.321,31.189 23.262,31.157 23.229,31.099 L19.772,24.942 C19.725,24.857 19.756,24.75 19.839,24.703 C19.926,24.656 20.031,24.686 20.079,24.77 L23.536,30.927 C23.583,31.012 23.552,31.119 23.469,31.166 C23.442,31.182 23.412,31.189 23.383,31.189 Z" id="Path"></path>
                <path d="M19.925,25.033 C19.921,25.033 19.917,25.033 19.913,25.032 L8.16,24.191 C8.062,24.184 7.99,24.1 7.996,24.003 C8.003,23.907 8.096,23.824 8.184,23.84 L19.937,24.681 C20.035,24.688 20.107,24.772 20.101,24.869 C20.094,24.962 20.017,25.033 19.925,25.033 Z" id="Path"></path>
                <path d="M80.992,30.234 C80.943,30.234 80.892,30.213 80.857,30.171 L73.548,21.507 C73.486,21.433 73.494,21.321 73.569,21.259 C73.643,21.199 73.756,21.205 73.818,21.28 L81.127,29.944 C81.189,30.018 81.181,30.13 81.106,30.192 C81.074,30.221 81.032,30.234 80.992,30.234 Z" id="Path"></path>
                <path d="M73.34,29.482 C73.337,29.482 73.335,29.482 73.332,29.482 C73.236,29.478 73.16,29.395 73.164,29.299 L73.508,21.387 C73.512,21.289 73.59,21.226 73.692,21.219 C73.788,21.223 73.864,21.306 73.86,21.402 L73.516,29.314 C73.512,29.409 73.433,29.482 73.34,29.482 Z" id="Path"></path>
                <path d="M80.992,30.234 C80.987,30.234 80.981,30.234 80.974,30.233 L73.322,29.481 C73.226,29.471 73.156,29.385 73.165,29.289 C73.173,29.198 73.25,29.13 73.34,29.13 C73.345,29.13 73.351,29.13 73.358,29.131 L81.01,29.883 C81.106,29.893 81.176,29.979 81.167,30.075 C81.159,30.166 81.082,30.234 80.992,30.234 Z" id="Path"></path>
                <path d="M80.992,30.234 C80.896,30.234 80.817,30.158 80.816,30.062 L80.587,18.902 C80.586,18.805 80.663,18.725 80.759,18.723 C80.76,18.723 80.762,18.723 80.763,18.723 C80.859,18.723 80.938,18.799 80.939,18.895 L81.168,30.055 C81.169,30.152 81.092,30.232 80.996,30.234 C80.995,30.234 80.994,30.234 80.992,30.234 Z" id="Path"></path>
                <path d="M63.769,20.941 C63.68,20.941 63.604,20.874 63.594,20.784 C63.583,20.687 63.653,20.601 63.749,20.59 L80.743,18.723 C80.849,18.705 80.927,18.781 80.937,18.878 C80.948,18.975 80.878,19.061 80.782,19.072 L63.789,20.94 C63.782,20.941 63.776,20.941 63.769,20.941 Z" id="Path"></path>
                <path d="M60.536,25.06 C60.498,25.06 60.459,25.048 60.427,25.022 C60.35,24.962 60.338,24.852 60.397,24.775 L63.63,20.657 C63.692,20.581 63.803,20.568 63.877,20.627 C63.954,20.687 63.966,20.797 63.907,20.874 L60.674,24.992 C60.639,25.036 60.588,25.06 60.536,25.06 Z" id="Path"></path>
                <path d="M60.536,25.06 C60.458,25.06 60.388,25.008 60.366,24.929 C60.341,24.835 60.398,24.739 60.491,24.714 L73.639,21.224 C73.731,21.197 73.829,21.254 73.855,21.348 C73.88,21.442 73.823,21.538 73.73,21.563 L60.582,25.053 C60.566,25.057 60.551,25.06 60.536,25.06 Z" id="Path"></path>
                <path d="M62.265,31.383 C62.216,31.383 62.166,31.362 62.132,31.322 C62.069,31.248 62.077,31.137 62.151,31.074 L73.57,21.261 C73.641,21.197 73.754,21.205 73.817,21.28 C73.88,21.354 73.872,21.465 73.798,21.528 L62.379,31.34 C62.346,31.369 62.306,31.383 62.265,31.383 Z" id="Path"></path>
                <path d="M62.265,31.383 C62.188,31.383 62.117,31.331 62.096,31.254 L60.367,24.931 C60.341,24.837 60.396,24.74 60.489,24.715 C60.587,24.69 60.68,24.745 60.705,24.838 L62.434,31.161 C62.46,31.255 62.405,31.352 62.312,31.377 C62.295,31.38 62.28,31.383 62.265,31.383 Z" id="Path"></path>
                <path d="M50.513,30.851 C50.453,30.851 50.393,30.819 50.36,30.763 C50.312,30.679 50.341,30.571 50.425,30.523 L60.448,24.732 C60.529,24.685 60.639,24.711 60.688,24.797 C60.736,24.881 60.707,24.989 60.623,25.037 L50.6,30.828 C50.574,30.843 50.543,30.851 50.513,30.851 Z" id="Path"></path>
                <path d="M62.265,31.383 C62.262,31.383 62.26,31.383 62.257,31.383 L50.506,30.851 C50.41,30.846 50.334,30.764 50.338,30.667 C50.343,30.57 50.409,30.508 50.522,30.499 L62.273,31.031 C62.369,31.036 62.445,31.118 62.441,31.215 C62.436,31.309 62.358,31.383 62.265,31.383 Z" id="Path"></path>
                <path d="M65.568,38.139 C65.503,38.139 65.44,38.103 65.41,38.04 L62.107,31.283 C62.064,31.196 62.1,31.091 62.188,31.048 C62.275,31.007 62.382,31.042 62.423,31.129 L65.726,37.886 C65.769,37.973 65.733,38.078 65.645,38.121 C65.62,38.134 65.594,38.139 65.568,38.139 Z" id="Path"></path>
                <path d="M65.568,38.139 C65.525,38.139 65.484,38.124 65.45,38.094 C65.379,38.029 65.373,37.917 65.438,37.845 L73.21,29.188 C73.276,29.116 73.387,29.112 73.459,29.174 C73.53,29.239 73.536,29.351 73.471,29.423 L65.699,38.08 C65.664,38.119 65.616,38.139 65.568,38.139 Z" id="Path"></path>
                <path d="M62.265,31.383 C62.181,31.383 62.107,31.323 62.092,31.237 C62.076,31.141 62.14,31.051 62.235,31.034 L73.31,29.134 C73.416,29.11 73.496,29.181 73.513,29.278 C73.529,29.374 73.465,29.464 73.37,29.481 L62.295,31.381 C62.284,31.382 62.274,31.383 62.265,31.383 Z" id="Path"></path>
                <path d="M56.825,39.444 C56.791,39.444 56.756,39.434 56.726,39.414 C56.646,39.36 56.624,39.25 56.679,39.17 L62.119,31.108 C62.175,31.028 62.285,31.007 62.364,31.061 C62.444,31.115 62.466,31.225 62.411,31.305 L56.971,39.367 C56.936,39.417 56.881,39.444 56.825,39.444 Z" id="Path"></path>
                <path d="M56.825,39.444 C56.74,39.444 56.664,39.381 56.65,39.294 C56.636,39.198 56.702,39.108 56.798,39.094 L65.541,37.789 C65.64,37.775 65.727,37.841 65.742,37.937 C65.756,38.033 65.69,38.123 65.594,38.137 L56.851,39.442 C56.841,39.444 56.833,39.444 56.825,39.444 Z" id="Path"></path>
                <path d="M71.014,39.319 C71.002,39.319 70.989,39.318 70.977,39.315 L65.531,38.135 C65.436,38.114 65.376,38.021 65.396,37.926 C65.417,37.831 65.516,37.773 65.605,37.791 L71.051,38.971 C71.146,38.992 71.206,39.085 71.186,39.18 C71.168,39.262 71.095,39.319 71.014,39.319 Z" id="Path"></path>
                <path d="M71.014,39.319 C70.967,39.319 70.922,39.301 70.888,39.265 C70.821,39.195 70.822,39.084 70.892,39.016 L73.562,36.453 C73.633,36.387 73.745,36.389 73.811,36.458 C73.878,36.528 73.877,36.639 73.807,36.707 L71.137,39.27 C71.102,39.302 71.058,39.319 71.014,39.319 Z" id="Path"></path>
                <path d="M73.684,36.756 C73.591,36.756 73.512,36.682 73.508,36.588 L73.164,29.314 C73.16,29.217 73.234,29.135 73.332,29.13 C73.442,29.132 73.511,29.201 73.516,29.298 L73.86,36.572 C73.864,36.669 73.79,36.751 73.692,36.756 C73.689,36.756 73.686,36.756 73.684,36.756 Z" id="Path"></path>
                <path d="M88.259,42.99 C88.216,42.99 88.175,42.975 88.141,42.945 L73.222,29.437 C73.151,29.372 73.145,29.26 73.21,29.188 C73.276,29.115 73.387,29.112 73.459,29.176 L88.378,42.684 C88.449,42.749 88.455,42.861 88.39,42.933 C88.355,42.97 88.307,42.99 88.259,42.99 Z" id="Path"></path>
                <path d="M88.259,42.99 C88.236,42.99 88.212,42.985 88.19,42.976 L73.615,36.742 C73.526,36.704 73.484,36.6 73.522,36.511 C73.562,36.422 73.668,36.382 73.753,36.419 L88.328,42.653 C88.417,42.691 88.459,42.795 88.421,42.884 C88.392,42.95 88.328,42.99 88.259,42.99 Z" id="Path"></path>
                <path d="M73.684,36.756 C73.659,36.756 73.633,36.751 73.608,36.74 L62.189,31.367 C62.102,31.325 62.064,31.221 62.105,31.133 C62.148,31.045 62.251,31.01 62.34,31.048 L73.759,36.421 C73.846,36.463 73.884,36.567 73.843,36.655 C73.813,36.719 73.75,36.756 73.684,36.756 Z" id="Path"></path>
                <path d="M62.265,31.383 C62.24,31.383 62.216,31.378 62.192,31.367 C62.103,31.326 62.064,31.221 62.105,31.133 L71.454,10.806 C71.494,10.718 71.602,10.681 71.686,10.719 C71.775,10.76 71.814,10.865 71.773,10.953 L62.424,31.28 C62.395,31.345 62.331,31.383 62.265,31.383 Z" id="Path"></path>
                <path d="M59.971,12.848 C59.886,12.848 59.81,12.785 59.796,12.699 C59.782,12.603 59.848,12.513 59.944,12.498 L71.587,10.705 C71.683,10.692 71.773,10.758 71.788,10.852 C71.802,10.948 71.736,11.038 71.64,11.053 L59.997,12.846 C59.989,12.848 59.979,12.848 59.971,12.848 Z" id="Path"></path>
                <path d="M60.536,25.06 C60.443,25.06 60.364,24.986 60.36,24.892 L59.795,12.681 C59.791,12.584 59.865,12.502 59.963,12.497 C60.072,12.492 60.142,12.568 60.147,12.665 L60.712,24.876 C60.716,24.973 60.642,25.055 60.544,25.06 C60.541,25.06 60.539,25.06 60.536,25.06 Z" id="Path"></path>
                <path d="M60.536,25.06 C60.487,25.06 60.437,25.039 60.403,24.999 L55.87,19.74 C55.807,19.666 55.815,19.555 55.888,19.492 C55.962,19.427 56.072,19.436 56.137,19.511 L60.67,24.77 C60.733,24.844 60.725,24.955 60.652,25.018 C60.617,25.046 60.577,25.06 60.536,25.06 Z" id="Path"></path>
                <path d="M63.769,20.941 C63.761,20.941 63.753,20.94 63.743,20.939 L55.976,19.798 C55.88,19.784 55.814,19.695 55.828,19.599 C55.842,19.503 55.919,19.429 56.029,19.451 L63.796,20.592 C63.892,20.606 63.958,20.695 63.944,20.791 C63.93,20.878 63.856,20.941 63.769,20.941 Z" id="Path"></path>
                <path d="M42.848,23.408 C42.76,23.408 42.684,23.342 42.673,23.253 C42.662,23.157 42.731,23.069 42.827,23.058 L63.748,20.591 C63.844,20.58 63.931,20.649 63.943,20.745 C63.954,20.841 63.885,20.929 63.789,20.94 L42.868,23.407 C42.862,23.407 42.855,23.408 42.848,23.408 Z" id="Path"></path>
                <path d="M50.513,30.851 C50.469,30.851 50.425,30.835 50.391,30.802 L42.726,23.359 C42.656,23.291 42.655,23.18 42.722,23.11 C42.791,23.041 42.902,23.04 42.971,23.106 L50.636,30.549 C50.706,30.617 50.707,30.728 50.64,30.798 C50.605,30.833 50.559,30.851 50.513,30.851 Z" id="Path"></path>
                <path d="M44.782,36.05 C44.734,36.05 44.686,36.031 44.651,35.992 C44.586,35.92 44.592,35.809 44.663,35.743 L50.394,30.544 C50.467,30.479 50.577,30.483 50.643,30.556 C50.708,30.628 50.702,30.739 50.631,30.805 L44.9,36.004 C44.866,36.035 44.824,36.05 44.782,36.05 Z" id="Path"></path>
                <path d="M44.782,36.05 C44.697,36.05 44.621,35.987 44.607,35.901 L42.674,23.259 C42.66,23.163 42.726,23.073 42.822,23.058 C42.92,23.043 43.008,23.11 43.023,23.205 L44.956,35.847 C44.97,35.943 44.904,36.033 44.808,36.048 C44.8,36.049 44.79,36.05 44.782,36.05 Z" id="Path"></path>
                <path d="M42.848,23.408 C42.822,23.408 42.796,23.403 42.771,23.39 C42.684,23.348 42.647,23.243 42.69,23.155 L48.508,11.157 C48.551,11.07 48.658,11.034 48.743,11.076 C48.83,11.118 48.867,11.223 48.824,11.311 L43.006,23.309 C42.976,23.371 42.913,23.408 42.848,23.408 Z" id="Path"></path>
                <path d="M56.003,19.8 C55.954,19.8 55.905,19.779 55.871,19.74 L48.535,11.35 C48.47,11.276 48.479,11.165 48.551,11.101 C48.624,11.037 48.734,11.045 48.798,11.117 L56.134,19.507 C56.199,19.581 56.19,19.692 56.118,19.756 C56.085,19.786 56.044,19.8 56.003,19.8 Z" id="Path"></path>
                <path d="M56.003,19.8 C55.981,19.8 55.958,19.796 55.936,19.787 L37.57,12.255 C37.481,12.218 37.438,12.116 37.475,12.026 C37.511,11.937 37.614,11.892 37.704,11.93 L56.07,19.462 C56.159,19.499 56.202,19.601 56.165,19.691 C56.137,19.759 56.071,19.8 56.003,19.8 Z" id="Path"></path>
                <path d="M42.848,23.408 C42.782,23.408 42.719,23.37 42.689,23.306 L37.477,12.166 C37.436,12.078 37.474,11.974 37.562,11.932 C37.646,11.89 37.753,11.929 37.796,12.017 L43.008,23.157 C43.049,23.245 43.011,23.349 42.923,23.391 C42.899,23.402 42.873,23.408 42.848,23.408 Z" id="Path"></path>
                <path d="M37.636,27.756 C37.585,27.756 37.536,27.735 37.501,27.693 C37.438,27.618 37.449,27.507 37.523,27.445 L42.735,23.097 C42.809,23.035 42.922,23.045 42.982,23.12 C43.045,23.195 43.034,23.306 42.96,23.368 L37.748,27.716 C37.716,27.743 37.676,27.756 37.636,27.756 Z" id="Path"></path>
                <path d="M37.636,27.756 C37.595,27.756 37.554,27.742 37.521,27.713 L30.763,21.861 C30.69,21.797 30.682,21.686 30.745,21.612 C30.811,21.538 30.921,21.532 30.994,21.594 L37.752,27.446 C37.825,27.51 37.833,27.621 37.77,27.695 C37.734,27.735 37.686,27.756 37.636,27.756 Z" id="Path"></path>
                <path d="M30.878,21.904 C30.842,21.904 30.808,21.894 30.778,21.872 C30.698,21.816 30.679,21.706 30.734,21.627 L37.492,11.991 C37.547,11.911 37.658,11.893 37.737,11.948 C37.817,12.004 37.836,12.114 37.781,12.193 L31.023,21.829 C30.988,21.878 30.933,21.904 30.878,21.904 Z" id="Path"></path>
                <path d="M37.636,12.268 C37.566,12.268 37.5,12.226 37.472,12.157 L35.925,8.24 C35.889,8.15 35.933,8.048 36.024,8.012 C36.109,7.978 36.215,8.02 36.252,8.111 L37.799,12.028 C37.835,12.118 37.791,12.22 37.7,12.256 C37.68,12.264 37.658,12.268 37.636,12.268 Z" id="Path"></path>
                <path d="M29.573,13.876 C29.524,13.876 29.474,13.855 29.438,13.814 C29.376,13.74 29.384,13.628 29.459,13.566 L35.975,8.041 C36.051,7.978 36.161,7.988 36.224,8.061 C36.286,8.135 36.278,8.247 36.203,8.309 L29.687,13.834 C29.654,13.863 29.613,13.876 29.573,13.876 Z" id="Path"></path>
                <path d="M30.878,21.904 C30.793,21.904 30.719,21.843 30.705,21.756 L29.4,13.729 C29.384,13.633 29.449,13.543 29.544,13.527 C29.636,13.508 29.731,13.576 29.746,13.673 L31.051,21.701 C31.067,21.797 31.002,21.887 30.907,21.903 C30.898,21.903 30.888,21.904 30.878,21.904 Z" id="Path"></path>
                <path d="M30.878,21.904 C30.857,21.904 30.835,21.901 30.815,21.892 C30.724,21.857 30.679,21.755 30.715,21.665 L35.926,8.112 C35.959,8.021 36.061,7.976 36.153,8.011 C36.244,8.046 36.289,8.148 36.253,8.238 L31.042,21.791 C31.016,21.861 30.949,21.904 30.878,21.904 Z" id="Path"></path>
                <path d="M36.089,8.351 C36.033,8.351 35.979,8.324 35.945,8.275 C35.89,8.195 35.909,8.086 35.989,8.03 L44.513,2.142 C44.593,2.088 44.703,2.108 44.758,2.187 C44.813,2.267 44.794,2.376 44.714,2.432 L36.19,8.32 C36.159,8.341 36.123,8.351 36.089,8.351 Z" id="Path"></path>
                <path d="M48.666,11.41 C48.599,11.41 48.535,11.372 48.505,11.307 L44.451,2.36 C44.411,2.271 44.451,2.167 44.539,2.127 C44.624,2.085 44.731,2.126 44.773,2.214 L48.827,11.161 C48.867,11.25 48.827,11.354 48.739,11.394 C48.716,11.405 48.691,11.41 48.666,11.41 Z" id="Path"></path>
                <path d="M48.666,11.41 C48.634,11.41 48.603,11.402 48.574,11.384 C48.49,11.332 48.465,11.224 48.516,11.141 L54.498,1.493 C54.547,1.41 54.657,1.384 54.74,1.436 C54.824,1.488 54.849,1.596 54.798,1.679 L48.816,11.327 C48.783,11.38 48.725,11.41 48.666,11.41 Z" id="Path"></path>
                <path d="M37.649,12.268 C37.59,12.268 37.532,12.238 37.499,12.185 C37.448,12.102 37.474,11.994 37.557,11.942 L54.556,1.436 C54.64,1.386 54.747,1.411 54.798,1.493 C54.849,1.576 54.823,1.684 54.74,1.736 L37.741,12.242 C37.712,12.26 37.68,12.268 37.649,12.268 Z" id="Path"></path>
                <path d="M37.649,12.268 C37.558,12.268 37.481,12.198 37.473,12.106 C37.466,12.009 37.539,11.925 37.635,11.917 L48.653,11.059 C48.753,11.038 48.833,11.124 48.843,11.22 C48.85,11.317 48.777,11.401 48.681,11.409 L37.663,12.267 C37.658,12.268 37.653,12.268 37.649,12.268 Z" id="Path"></path>
                <path d="M59.971,12.848 C59.964,12.848 59.956,12.847 59.949,12.847 L48.644,11.408 C48.548,11.396 48.479,11.308 48.491,11.212 C48.502,11.116 48.59,11.053 48.687,11.059 L59.992,12.498 C60.088,12.51 60.157,12.598 60.145,12.694 C60.135,12.784 60.059,12.848 59.971,12.848 Z" id="Path"></path>
                <path d="M42.848,23.408 C42.789,23.408 42.731,23.378 42.698,23.324 C42.647,23.242 42.673,23.133 42.756,23.082 L59.879,12.523 C59.963,12.471 60.07,12.498 60.121,12.581 C60.172,12.664 60.146,12.772 60.063,12.823 L42.94,23.382 C42.912,23.4 42.88,23.408 42.848,23.408 Z" id="Path"></path>
                <path d="M34.191,40.499 C34.164,40.499 34.137,40.493 34.111,40.48 C34.024,40.436 33.99,40.33 34.034,40.244 L42.691,23.153 C42.734,23.066 42.841,23.032 42.927,23.076 C43.014,23.12 43.048,23.226 43.004,23.312 L34.347,40.403 C34.318,40.464 34.256,40.499 34.191,40.499 Z" id="Path"></path>
                <path d="M34.191,40.499 C34.176,40.499 34.161,40.497 34.146,40.493 C34.051,40.468 33.996,40.371 34.021,40.277 L37.466,27.533 C37.492,27.439 37.588,27.384 37.682,27.409 C37.777,27.434 37.832,27.531 37.807,27.625 L34.362,40.369 C34.34,40.448 34.268,40.499 34.191,40.499 Z" id="Path"></path>
                <path d="M28.516,32.458 C28.453,32.458 28.391,32.423 28.359,32.362 C28.315,32.276 28.349,32.17 28.435,32.125 L37.555,27.422 C37.64,27.379 37.747,27.411 37.793,27.498 C37.837,27.584 37.803,27.69 37.717,27.735 L28.597,32.438 C28.571,32.452 28.544,32.458 28.516,32.458 Z" id="Path"></path>
                <path d="M28.516,32.458 C28.504,32.458 28.49,32.457 28.478,32.454 C28.383,32.433 28.324,32.339 28.345,32.244 L30.707,21.689 C30.728,21.596 30.824,21.535 30.917,21.556 C31.012,21.577 31.071,21.671 31.05,21.766 L28.688,32.321 C28.67,32.403 28.597,32.458 28.516,32.458 Z" id="Path"></path>
                <path d="M23.383,31.189 C23.345,31.189 23.305,31.176 23.273,31.15 C23.197,31.089 23.185,30.978 23.246,30.903 L30.742,21.617 C30.804,21.541 30.915,21.53 30.989,21.591 C31.065,21.652 31.077,21.763 31.016,21.838 L23.52,31.124 C23.484,31.167 23.433,31.189 23.383,31.189 Z" id="Path"></path>
                <path d="M21.654,36.715 C21.636,36.715 21.62,36.712 21.602,36.707 C21.509,36.678 21.458,36.579 21.487,36.487 L23.216,30.962 C23.245,30.868 23.342,30.816 23.436,30.847 C23.529,30.876 23.58,30.975 23.551,31.067 L21.822,36.592 C21.798,36.667 21.73,36.715 21.654,36.715 Z" id="Path"></path>
                <path d="M21.654,36.715 C21.595,36.715 21.537,36.685 21.504,36.632 C21.453,36.55 21.478,36.441 21.562,36.389 L28.424,32.133 C28.508,32.083 28.616,32.109 28.666,32.19 C28.717,32.272 28.692,32.381 28.608,32.433 L21.746,36.689 C21.717,36.707 21.686,36.715 21.654,36.715 Z" id="Path"></path>
                <path d="M34.191,40.499 C34.136,40.499 34.081,40.473 34.047,40.425 L28.372,32.384 C28.317,32.304 28.335,32.194 28.415,32.139 C28.493,32.082 28.603,32.101 28.661,32.181 L34.336,40.222 C34.391,40.302 34.373,40.412 34.293,40.467 C34.262,40.489 34.227,40.499 34.191,40.499 Z" id="Path"></path>
                <path d="M34.191,40.499 C34.122,40.499 34.058,40.458 34.029,40.391 C33.992,40.302 34.033,40.199 34.122,40.161 L44.712,35.712 C44.807,35.675 44.904,35.716 44.943,35.806 C44.98,35.895 44.939,35.998 44.85,36.036 L34.26,40.485 C34.237,40.495 34.215,40.499 34.191,40.499 Z" id="Path"></path>
                <path d="M40.697,42.748 C40.665,42.748 40.634,42.74 40.605,42.723 C40.523,42.672 40.496,42.564 40.547,42.481 L44.632,35.783 C44.683,35.7 44.79,35.674 44.874,35.724 C44.956,35.775 44.983,35.883 44.932,35.966 L40.847,42.664 C40.813,42.718 40.756,42.748 40.697,42.748 Z" id="Path"></path>
                <path d="M52.279,43.981 C52.274,43.981 52.267,43.981 52.26,43.98 L40.678,42.747 C40.582,42.737 40.512,42.649 40.523,42.553 C40.533,42.457 40.594,42.383 40.717,42.396 L52.299,43.629 C52.395,43.639 52.465,43.727 52.454,43.823 C52.444,43.914 52.368,43.981 52.279,43.981 Z" id="Path"></path>
                <path d="M52.279,43.981 C52.192,43.981 52.117,43.917 52.104,43.828 L50.338,30.698 C50.326,30.602 50.393,30.513 50.489,30.5 C50.577,30.49 50.673,30.554 50.687,30.651 L52.453,43.781 C52.465,43.877 52.398,43.966 52.302,43.979 C52.294,43.98 52.287,43.981 52.279,43.981 Z" id="Path"></path>
                <path d="M56.825,39.444 C56.771,39.444 56.718,39.419 56.683,39.373 L50.372,30.779 C50.314,30.701 50.331,30.59 50.409,30.533 C50.487,30.473 50.597,30.492 50.655,30.57 L56.966,39.164 C57.024,39.242 57.007,39.353 56.929,39.41 C56.897,39.433 56.86,39.444 56.825,39.444 Z" id="Path"></path>
                <path d="M40.697,42.748 C40.615,42.748 40.542,42.691 40.525,42.607 C40.504,42.512 40.566,42.419 40.661,42.4 L56.789,39.097 C56.892,39.078 56.977,39.139 56.996,39.234 C57.017,39.329 56.955,39.422 56.86,39.441 L40.732,42.744 C40.72,42.746 40.708,42.748 40.697,42.748 Z" id="Path"></path>
                <path d="M40.697,42.748 C40.634,42.748 40.573,42.714 40.542,42.654 C40.497,42.568 40.53,42.462 40.615,42.417 L62.183,31.052 C62.268,31.004 62.375,31.04 62.421,31.126 C62.466,31.212 62.433,31.318 62.348,31.363 L40.779,42.727 C40.753,42.742 40.724,42.748 40.697,42.748 Z" id="Path"></path>
                <path d="M63.916,43.843 C63.9,43.843 63.883,43.841 63.867,43.836 C63.774,43.809 63.72,43.712 63.747,43.618 L65.399,37.914 C65.426,37.821 65.527,37.769 65.617,37.794 C65.71,37.821 65.764,37.918 65.737,38.012 L64.085,43.716 C64.063,43.793 63.993,43.843 63.916,43.843 Z" id="Path"></path>
                <path d="M76.734,47.293 C76.694,47.293 76.656,47.28 76.623,47.253 L65.457,38.099 C65.381,38.037 65.37,37.927 65.432,37.852 C65.494,37.776 65.604,37.766 65.679,37.827 L76.845,46.981 C76.921,47.043 76.932,47.153 76.87,47.228 C76.836,47.271 76.785,47.293 76.734,47.293 Z" id="Path"></path>
                <path d="M76.734,47.293 C76.679,47.293 76.625,47.268 76.591,47.219 L70.871,39.244 C70.815,39.165 70.833,39.055 70.911,38.999 C70.991,38.942 71.099,38.959 71.157,39.04 L76.877,47.015 C76.933,47.094 76.915,47.204 76.837,47.26 C76.806,47.282 76.77,47.293 76.734,47.293 Z" id="Path"></path>
                <path d="M67.071,59.896 C67.06,59.896 67.049,59.895 67.038,59.893 C66.942,59.875 66.88,59.783 66.898,59.688 L70.84,39.11 C70.858,39.014 70.953,38.942 71.046,38.971 C71.142,38.989 71.204,39.081 71.186,39.176 L67.244,59.753 C67.228,59.838 67.154,59.896 67.071,59.896 Z" id="Path"></path>
                <path d="M67.071,59.896 C67.006,59.896 66.945,59.86 66.914,59.799 L56.668,39.348 C56.624,39.261 56.658,39.155 56.746,39.112 C56.833,39.071 56.94,39.105 56.981,39.19 L67.228,59.642 C67.272,59.729 67.238,59.835 67.15,59.878 C67.125,59.89 67.097,59.896 67.071,59.896 Z" id="Path"></path>
                <path d="M47.853,57.159 C47.795,57.159 47.739,57.13 47.705,57.078 L43.522,50.526 C43.47,50.444 43.495,50.335 43.576,50.283 C43.656,50.233 43.766,50.255 43.819,50.337 L48.002,56.889 C48.054,56.971 48.029,57.08 47.948,57.132 C47.919,57.15 47.886,57.159 47.853,57.159 Z" id="Path"></path>
                <path d="M55.011,51.816 C55.006,51.816 54.999,51.816 54.992,51.815 L43.651,50.606 C43.555,50.596 43.485,50.508 43.496,50.412 C43.506,50.316 43.569,50.242 43.69,50.255 L55.031,51.464 C55.127,51.474 55.197,51.562 55.186,51.658 C55.176,51.749 55.1,51.816 55.011,51.816 Z" id="Path"></path>
                <path d="M43.67,50.606 C43.599,50.606 43.533,50.563 43.505,50.493 L40.531,42.634 C40.497,42.543 40.543,42.442 40.634,42.407 C40.726,42.371 40.825,42.418 40.861,42.509 L43.835,50.368 C43.869,50.459 43.823,50.56 43.732,50.595 C43.711,50.603 43.691,50.606 43.67,50.606 Z" id="Path"></path>
                <path d="M33.441,50.195 C33.437,50.195 33.431,50.195 33.427,50.194 C33.331,50.186 33.258,50.102 33.265,50.005 L34.015,40.309 C34.023,40.213 34.122,40.132 34.205,40.148 C34.301,40.156 34.374,40.24 34.367,40.337 L33.617,50.033 C33.609,50.125 33.532,50.195 33.441,50.195 Z" id="Path"></path>
                <path d="M41.895,54.586 C41.833,54.586 41.773,54.553 41.741,54.495 L34.038,40.408 C33.991,40.323 34.023,40.216 34.108,40.169 C34.19,40.124 34.299,40.154 34.346,40.239 L42.049,54.326 C42.096,54.411 42.064,54.518 41.979,54.565 C41.952,54.579 41.924,54.586 41.895,54.586 Z" id="Path"></path>
                <path d="M30.878,21.904 C30.867,21.904 30.855,21.903 30.842,21.901 L23.298,20.354 C23.203,20.334 23.141,20.241 23.162,20.147 C23.18,20.052 23.262,19.992 23.369,20.01 L30.913,21.557 C31.008,21.577 31.07,21.67 31.049,21.764 C31.034,21.847 30.961,21.904 30.878,21.904 Z" id="Path"></path>
                <path d="M23.383,31.189 C23.287,31.189 23.207,31.111 23.207,31.014 L23.159,20.181 C23.159,20.084 23.237,20.005 23.334,20.004 C23.335,20.004 23.335,20.004 23.335,20.004 C23.431,20.004 23.511,20.082 23.511,20.179 L23.559,31.012 C23.559,31.109 23.481,31.188 23.384,31.189 C23.383,31.189 23.383,31.189 23.383,31.189 Z" id="Path"></path>
                <path d="M23.335,20.357 C23.301,20.357 23.265,20.347 23.235,20.325 L18.06,16.698 C17.98,16.642 17.961,16.532 18.016,16.453 C18.071,16.373 18.181,16.354 18.261,16.41 L23.436,20.037 C23.516,20.093 23.535,20.203 23.48,20.282 C23.444,20.331 23.39,20.357 23.335,20.357 Z" id="Path"></path>
                <path d="M18.16,16.73 C18.126,16.73 18.09,16.72 18.06,16.698 C17.98,16.642 17.961,16.533 18.016,16.453 L24.786,6.732 C24.841,6.651 24.951,6.632 25.031,6.688 C25.111,6.744 25.13,6.853 25.075,6.933 L18.305,16.654 C18.27,16.704 18.215,16.73 18.16,16.73 Z" id="Path"></path>
                <path d="M24.93,7.008 C24.907,7.008 24.883,7.003 24.86,6.994 L20.266,5.011 C20.177,4.973 20.135,4.869 20.174,4.78 C20.214,4.69 20.314,4.652 20.406,4.688 L25,6.671 C25.089,6.709 25.131,6.813 25.092,6.902 C25.063,6.969 24.997,7.008 24.93,7.008 Z" id="Path"></path>
                <path d="M23.358,20.371 C23.276,20.371 23.201,20.313 23.185,20.229 L20.163,4.884 C20.145,4.789 20.207,4.696 20.302,4.678 C20.409,4.657 20.49,4.722 20.509,4.817 L23.531,20.162 C23.549,20.257 23.487,20.35 23.392,20.368 C23.38,20.37 23.369,20.371 23.358,20.371 Z" id="Path"></path>
                <path d="M23.358,20.371 C23.314,20.371 23.27,20.355 23.237,20.322 C23.166,20.255 23.164,20.143 23.232,20.073 L29.447,13.578 C29.514,13.507 29.627,13.507 29.694,13.573 C29.765,13.64 29.767,13.752 29.699,13.822 L23.484,20.317 C23.45,20.353 23.405,20.371 23.358,20.371 Z" id="Path"></path>
                <path d="M29.573,13.876 C29.517,13.876 29.462,13.849 29.427,13.798 L24.784,6.93 C24.729,6.85 24.751,6.74 24.831,6.686 C24.911,6.632 25.021,6.652 25.076,6.733 L29.719,13.601 C29.774,13.681 29.752,13.791 29.672,13.845 C29.642,13.867 29.607,13.876 29.573,13.876 Z" id="Path"></path>
                <path d="M24.93,7.008 C24.868,7.008 24.808,6.975 24.776,6.917 C24.729,6.832 24.76,6.725 24.845,6.678 L34.88,1.141 C34.965,1.093 35.072,1.125 35.119,1.21 C35.166,1.295 35.135,1.402 35.05,1.449 L25.015,6.986 C24.988,7.002 24.959,7.008 24.93,7.008 Z" id="Path"></path>
                <path d="M36.089,8.351 C36.004,8.351 35.93,8.29 35.916,8.203 L34.792,1.323 C34.776,1.227 34.841,1.137 34.936,1.121 C35.028,1.107 35.123,1.17 35.138,1.267 L36.262,8.147 C36.278,8.243 36.213,8.333 36.118,8.349 C36.108,8.35 36.099,8.351 36.089,8.351 Z" id="Path"></path>
                <path d="M48.666,11.41 C48.652,11.41 48.639,11.409 48.625,11.405 L36.048,8.346 C35.953,8.323 35.895,8.228 35.919,8.134 C35.941,8.04 36.039,7.983 36.131,8.004 L48.708,11.063 C48.803,11.086 48.861,11.181 48.837,11.275 C48.818,11.356 48.746,11.41 48.666,11.41 Z" id="Path"></path>
                <path d="M48.666,11.41 C48.63,11.41 48.595,11.399 48.563,11.376 L34.862,1.438 C34.784,1.381 34.766,1.271 34.822,1.193 C34.878,1.114 34.987,1.095 35.068,1.154 L48.769,11.092 C48.847,11.149 48.865,11.259 48.809,11.337 C48.775,11.384 48.721,11.41 48.666,11.41 Z" id="Path"></path>
                <path d="M29.573,13.876 C29.55,13.876 29.526,13.871 29.503,13.862 C29.414,13.823 29.372,13.72 29.412,13.63 L34.804,1.225 C34.842,1.136 34.946,1.096 35.035,1.134 C35.124,1.173 35.166,1.276 35.126,1.366 L29.734,13.771 C29.705,13.836 29.64,13.876 29.573,13.876 Z" id="Path"></path>
                <path d="M29.573,13.876 C29.557,13.876 29.541,13.874 29.525,13.869 L13.275,9.216 C13.182,9.189 13.127,9.092 13.154,8.999 C13.181,8.906 13.279,8.853 13.371,8.878 L29.621,13.531 C29.714,13.558 29.769,13.655 29.742,13.748 C29.72,13.826 29.65,13.876 29.573,13.876 Z" id="Path"></path>
                <path d="M18.16,16.73 C18.102,16.73 18.046,16.702 18.012,16.65 L13.175,9.144 C13.123,9.062 13.146,8.953 13.229,8.901 C13.31,8.849 13.419,8.871 13.472,8.953 L18.309,16.459 C18.361,16.541 18.338,16.65 18.255,16.702 C18.226,16.721 18.193,16.73 18.16,16.73 Z" id="Path"></path>
                <path d="M8.173,24.192 C8.119,24.192 8.067,24.168 8.031,24.121 C7.973,24.043 7.99,23.933 8.067,23.875 L18.054,16.413 C18.132,16.357 18.242,16.37 18.301,16.449 C18.359,16.527 18.342,16.637 18.265,16.695 L8.278,24.157 C8.247,24.18 8.21,24.192 8.173,24.192 Z" id="Path"></path>
                <path d="M18.16,16.73 C18.149,16.73 18.139,16.729 18.128,16.727 L8.746,15.01 C8.65,14.992 8.587,14.901 8.604,14.805 C8.62,14.709 8.711,14.644 8.809,14.663 L18.191,16.38 C18.287,16.398 18.35,16.489 18.333,16.585 C18.318,16.671 18.243,16.73 18.16,16.73 Z" id="Path"></path>
                <path d="M19.925,25.033 C19.882,25.033 19.841,25.018 19.807,24.988 L8.659,14.968 C8.588,14.903 8.582,14.792 8.647,14.72 C8.713,14.648 8.823,14.644 8.896,14.707 L20.044,24.727 C20.115,24.792 20.121,24.903 20.056,24.975 C20.022,25.013 19.973,25.033 19.925,25.033 Z" id="Path"></path>
                <path d="M8.777,15.013 C8.712,15.013 8.651,14.977 8.619,14.915 C8.576,14.828 8.612,14.722 8.699,14.679 L24.852,6.675 C24.94,6.633 25.044,6.668 25.088,6.754 C25.131,6.841 25.095,6.947 25.008,6.99 L8.855,14.994 C8.831,15.007 8.803,15.013 8.777,15.013 Z" id="Path"></path>
                <path d="M8.173,24.192 C8.154,24.192 8.135,24.189 8.115,24.182 C8.024,24.15 7.975,24.05 8.006,23.959 L13.156,8.991 C13.188,8.899 13.289,8.849 13.38,8.882 C13.471,8.914 13.52,9.014 13.489,9.105 L8.339,24.073 C8.314,24.146 8.245,24.192 8.173,24.192 Z" id="Path"></path>
                <path d="M2.249,29.376 C2.169,29.376 2.098,29.322 2.079,29.242 C2.056,29.148 2.113,29.052 2.207,29.029 L19.884,24.686 C19.99,24.666 20.075,24.721 20.097,24.815 C20.12,24.909 20.063,25.005 19.969,25.028 L2.291,29.371 C2.276,29.374 2.262,29.376 2.249,29.376 Z" id="Path"></path>
                <path d="M23.383,31.189 C23.378,31.189 23.373,31.189 23.368,31.188 L2.234,29.375 C2.138,29.367 2.065,29.282 2.073,29.185 C2.081,29.088 2.169,29.015 2.264,29.025 L23.398,30.839 C23.494,30.847 23.567,30.932 23.559,31.029 C23.55,31.12 23.473,31.189 23.383,31.189 Z" id="Path"></path>
                <path d="M21.654,36.715 C21.633,36.715 21.613,36.712 21.592,36.703 L2.187,29.364 C2.096,29.33 2.05,29.229 2.084,29.137 C2.12,29.046 2.219,28.997 2.311,29.035 L21.716,36.374 C21.807,36.408 21.853,36.509 21.819,36.601 C21.791,36.672 21.725,36.715 21.654,36.715 Z" id="Path"></path>
                <path d="M19.28,41.87 C19.222,41.87 19.165,41.841 19.132,41.788 L8.024,24.109 C7.972,24.027 7.997,23.918 8.079,23.866 C8.16,23.814 8.27,23.839 8.321,23.922 L19.428,41.6 C19.48,41.682 19.455,41.791 19.373,41.843 C19.344,41.861 19.311,41.87 19.28,41.87 Z" id="Path"></path>
                <path d="M19.28,41.87 C19.277,41.87 19.276,41.87 19.273,41.87 C19.175,41.866 19.1,41.784 19.104,41.687 L19.75,24.85 C19.754,24.755 19.831,24.681 19.926,24.681 C19.929,24.681 19.93,24.681 19.933,24.681 C20.031,24.685 20.106,24.767 20.102,24.864 L19.456,41.701 C19.451,41.796 19.374,41.87 19.28,41.87 Z" id="Path"></path>
                <path d="M13.214,42.276 C13.193,42.276 13.171,42.272 13.151,42.264 C13.06,42.228 13.015,42.127 13.051,42.036 L19.762,24.793 C19.795,24.703 19.899,24.66 19.989,24.693 C20.08,24.729 20.125,24.83 20.089,24.921 L13.378,42.164 C13.352,42.233 13.284,42.276 13.214,42.276 Z" id="Path"></path>
                <path d="M19.925,25.033 C19.889,25.033 19.852,25.022 19.821,24.999 C19.743,24.941 19.726,24.831 19.784,24.753 L23.217,20.091 C23.273,20.013 23.385,19.995 23.463,20.054 C23.541,20.112 23.558,20.222 23.5,20.3 L20.067,24.962 C20.033,25.008 19.979,25.033 19.925,25.033 Z" id="Path"></path>
                <path d="M19.925,25.033 C19.848,25.033 19.778,24.983 19.756,24.905 C19.73,24.812 19.783,24.715 19.877,24.688 L30.83,21.559 C30.925,21.532 31.021,21.585 31.047,21.68 C31.073,21.773 31.02,21.87 30.926,21.897 L19.973,25.026 C19.957,25.031 19.942,25.033 19.925,25.033 Z" id="Path"></path>
                <path d="M19.925,25.033 C19.844,25.033 19.771,24.977 19.753,24.894 L17.987,16.591 C17.966,16.496 18.027,16.403 18.122,16.383 C18.218,16.362 18.31,16.423 18.331,16.518 L20.097,24.821 C20.118,24.916 20.057,25.009 19.962,25.029 C19.95,25.031 19.938,25.033 19.925,25.033 Z" id="Path"></path>
                <path d="M37.636,27.756 C37.628,27.756 37.618,27.755 37.61,27.754 L19.899,25.031 C19.803,25.017 19.737,24.927 19.751,24.83 C19.766,24.735 19.862,24.669 19.952,24.683 L37.663,27.406 C37.759,27.42 37.825,27.51 37.811,27.607 C37.797,27.693 37.722,27.756 37.636,27.756 Z" id="Path"></path>
                <path d="M44.782,36.05 C44.77,36.05 44.757,36.049 44.744,36.046 L28.479,32.455 C28.384,32.434 28.325,32.34 28.346,32.245 C28.367,32.15 28.452,32.09 28.556,32.111 L44.821,35.702 C44.916,35.723 44.975,35.817 44.954,35.912 C44.936,35.994 44.863,36.05 44.782,36.05 Z" id="Path"></path>
                <path d="M27.44,42.027 C27.433,42.027 27.428,42.026 27.421,42.026 C27.323,42.016 27.255,41.928 27.266,41.832 L28.342,32.263 C28.353,32.167 28.444,32.102 28.536,32.108 C28.634,32.118 28.702,32.206 28.691,32.302 L27.615,41.871 C27.605,41.96 27.528,42.027 27.44,42.027 Z" id="Path"></path>
                <path d="M27.44,42.027 C27.404,42.027 27.369,42.017 27.338,41.994 C27.258,41.938 27.24,41.828 27.297,41.749 L37.493,27.477 C37.549,27.397 37.661,27.378 37.738,27.436 C37.818,27.492 37.836,27.602 37.779,27.681 L27.583,41.954 C27.549,42.002 27.495,42.027 27.44,42.027 Z" id="Path"></path>
                <path d="M28.516,32.458 C28.502,32.458 28.489,32.457 28.473,32.453 L23.339,31.184 C23.246,31.161 23.188,31.065 23.211,30.971 C23.234,30.878 23.324,30.819 23.424,30.842 L28.558,32.111 C28.651,32.134 28.709,32.23 28.686,32.324 C28.667,32.405 28.596,32.458 28.516,32.458 Z" id="Path"></path>
                <path d="M21.654,36.715 C21.559,36.715 21.481,36.639 21.478,36.544 C21.475,36.447 21.552,36.366 21.648,36.363 L44.776,35.698 C44.779,35.698 44.78,35.698 44.781,35.698 C44.876,35.698 44.954,35.774 44.957,35.869 C44.96,35.966 44.883,36.047 44.787,36.05 L21.66,36.715 C21.657,36.715 21.655,36.715 21.654,36.715 Z" id="Path"></path>
                <path d="M43.67,50.606 C43.651,50.606 43.632,50.603 43.612,50.596 C43.52,50.564 43.472,50.464 43.503,50.372 L50.346,30.616 C50.378,30.525 50.479,30.477 50.57,30.507 C50.662,30.539 50.71,30.639 50.679,30.731 L43.836,50.487 C43.812,50.561 43.743,50.606 43.67,50.606 Z" id="Path"></path>
                <path d="M42.848,23.408 C42.812,23.408 42.777,23.397 42.745,23.375 L29.47,13.843 C29.392,13.786 29.374,13.677 29.43,13.598 C29.486,13.518 29.596,13.5 29.676,13.557 L42.951,23.089 C43.029,23.146 43.047,23.255 42.991,23.334 C42.957,23.382 42.903,23.408 42.848,23.408 Z" id="Path"></path>
                <path d="M42.848,23.408 C42.841,23.408 42.833,23.407 42.826,23.407 L30.856,21.903 C30.76,21.891 30.691,21.803 30.703,21.707 C30.715,21.611 30.803,21.541 30.899,21.554 L42.869,23.058 C42.965,23.07 43.034,23.158 43.022,23.254 C43.012,23.343 42.936,23.408 42.848,23.408 Z" id="Path"></path>
                <path d="M60.536,25.06 C60.531,25.06 60.525,25.06 60.52,25.059 L42.832,23.407 C42.736,23.398 42.664,23.312 42.674,23.215 C42.682,23.118 42.774,23.041 42.865,23.056 L60.553,24.708 C60.649,24.717 60.721,24.803 60.711,24.9 C60.702,24.991 60.625,25.06 60.536,25.06 Z" id="Path"></path>
                <path d="M83.955,47.898 C83.87,47.898 83.796,47.837 83.782,47.751 L80.819,30.087 C80.803,29.991 80.867,29.901 80.963,29.885 C81.052,29.863 81.149,29.933 81.165,30.029 L84.128,47.693 C84.144,47.789 84.08,47.879 83.984,47.895 C83.974,47.897 83.965,47.898 83.955,47.898 Z" id="Path"></path>
                <path d="M76.734,47.293 C76.72,47.293 76.705,47.292 76.691,47.288 C76.596,47.265 76.54,47.169 76.563,47.075 L80.821,30.016 C80.843,29.922 80.943,29.859 81.034,29.888 C81.129,29.911 81.185,30.007 81.162,30.101 L76.904,47.16 C76.885,47.24 76.812,47.293 76.734,47.293 Z" id="Path"></path>
                <path d="M76.734,47.293 C76.697,47.293 76.66,47.281 76.628,47.258 C76.551,47.2 76.535,47.089 76.594,47.011 L87.188,32.926 C87.246,32.848 87.357,32.835 87.434,32.891 C87.511,32.949 87.527,33.06 87.468,33.138 L76.874,47.223 C76.84,47.269 76.788,47.293 76.734,47.293 Z" id="Path"></path>
                <path d="M55.011,51.816 C54.93,51.816 54.856,51.759 54.839,51.676 C54.818,51.581 54.88,51.488 54.975,51.468 L76.698,46.946 C76.796,46.932 76.886,46.987 76.905,47.083 C76.926,47.178 76.864,47.271 76.769,47.291 L55.046,51.813 C55.034,51.814 55.023,51.816 55.011,51.816 Z" id="Path"></path>
                <path d="M56.245,58.392 C56.218,58.392 56.189,58.386 56.163,58.371 C56.078,58.326 56.045,58.22 56.09,58.134 L63.762,43.585 C63.807,43.5 63.913,43.465 64,43.511 C64.085,43.556 64.118,43.662 64.073,43.748 L56.4,58.298 C56.368,58.358 56.308,58.392 56.245,58.392 Z" id="Path"></path>
                <path d="M56.245,58.392 C56.183,58.392 56.123,58.359 56.09,58.3 C56.045,58.215 56.076,58.108 56.161,58.062 L76.65,46.963 C76.732,46.917 76.84,46.947 76.889,47.034 C76.934,47.119 76.903,47.226 76.818,47.272 L56.328,58.371 C56.302,58.385 56.273,58.392 56.245,58.392 Z" id="Path"></path>
                <path d="M56.245,58.392 C56.161,58.392 56.088,58.333 56.072,58.248 L54.838,51.671 C54.82,51.575 54.883,51.483 54.978,51.466 C55.069,51.447 55.165,51.511 55.184,51.607 L56.418,58.184 C56.436,58.279 56.373,58.372 56.278,58.389 C56.267,58.391 56.256,58.392 56.245,58.392 Z" id="Path"></path>
                <path d="M47.853,57.159 C47.835,57.159 47.816,57.156 47.797,57.15 C47.705,57.119 47.655,57.019 47.687,56.927 L52.113,43.749 C52.143,43.657 52.237,43.606 52.336,43.638 C52.428,43.669 52.478,43.769 52.446,43.861 L48.02,57.039 C47.994,57.113 47.926,57.159 47.853,57.159 Z" id="Path"></path>
                <path d="M33.441,50.195 C33.397,50.195 33.353,50.179 33.319,50.145 C33.249,50.078 33.248,49.966 33.315,49.896 L40.57,42.449 C40.637,42.382 40.749,42.378 40.819,42.446 C40.889,42.513 40.89,42.625 40.823,42.695 L33.568,50.142 C33.533,50.177 33.487,50.195 33.441,50.195 Z" id="Path"></path>
                <path d="M33.441,50.195 C33.367,50.195 33.298,50.148 33.273,50.074 C33.243,49.982 33.294,49.882 33.386,49.852 L52.224,43.638 C52.317,43.608 52.416,43.659 52.447,43.75 C52.477,43.842 52.426,43.942 52.334,43.972 L33.496,50.186 C33.478,50.192 33.459,50.195 33.441,50.195 Z" id="Path"></path>
                <path d="M50.513,30.851 C50.424,30.851 50.347,30.783 50.338,30.692 L48.492,11.25 C48.482,11.153 48.554,11.068 48.65,11.058 C48.745,11.045 48.833,11.12 48.841,11.217 L50.688,30.658 C50.698,30.755 50.626,30.84 50.53,30.85 C50.524,30.851 50.519,30.851 50.513,30.851 Z" id="Path"></path>
                <path d="M50.513,30.851 C50.487,30.851 50.459,30.845 50.435,30.832 C50.348,30.789 50.313,30.684 50.355,30.596 L55.845,19.545 C55.89,19.459 55.998,19.425 56.081,19.466 C56.168,19.509 56.203,19.614 56.161,19.702 L50.671,30.753 C50.64,30.815 50.578,30.851 50.513,30.851 Z" id="Path"></path>
                <path d="M42.848,23.408 C42.771,23.408 42.7,23.356 42.679,23.279 C42.653,23.185 42.708,23.089 42.801,23.063 L55.955,19.455 C56.046,19.428 56.146,19.485 56.171,19.578 C56.197,19.672 56.142,19.768 56.049,19.794 L42.895,23.402 C42.88,23.406 42.863,23.408 42.848,23.408 Z" id="Path"></path>
                <path d="M56.003,19.8 C55.941,19.8 55.882,19.768 55.849,19.71 C55.802,19.625 55.833,19.518 55.916,19.471 L71.527,10.727 C71.614,10.677 71.718,10.709 71.767,10.794 C71.814,10.879 71.783,10.986 71.7,11.033 L56.089,19.777 C56.062,19.793 56.032,19.8 56.003,19.8 Z" id="Path"></path>
                <path d="M59.971,12.848 C59.937,12.848 59.902,12.838 59.872,12.818 L44.514,2.433 C44.434,2.379 44.412,2.269 44.467,2.189 C44.522,2.107 44.632,2.088 44.712,2.142 L60.07,12.527 C60.15,12.581 60.172,12.691 60.117,12.771 C60.083,12.822 60.028,12.848 59.971,12.848 Z" id="Path"></path>
                <path d="M62.924,5.935 C62.913,5.935 62.902,5.934 62.891,5.932 L44.58,2.46 C44.485,2.441 44.422,2.349 44.44,2.254 C44.458,2.158 44.55,2.092 44.646,2.114 L62.957,5.586 C63.052,5.605 63.115,5.697 63.097,5.792 C63.081,5.876 63.007,5.935 62.924,5.935 Z" id="Path"></path>
                <path d="M36.162,8.301 C36.155,8.301 36.148,8.3 36.141,8.3 L24.909,7.008 C24.813,6.997 24.744,6.91 24.755,6.814 C24.766,6.716 24.859,6.646 24.95,6.659 L36.182,7.951 C36.278,7.962 36.347,8.049 36.336,8.145 C36.327,8.235 36.25,8.301 36.162,8.301 Z" id="Path"></path>
                <path d="M30.878,21.904 C30.818,21.904 30.76,21.873 30.727,21.817 C30.678,21.733 30.705,21.625 30.789,21.577 L48.577,11.083 C48.659,11.031 48.767,11.062 48.817,11.145 C48.866,11.229 48.839,11.337 48.755,11.385 L30.968,21.879 C30.94,21.896 30.909,21.904 30.878,21.904 Z" id="Path"></path>
                <path d="M50.513,30.851 C50.499,30.851 50.486,30.85 50.472,30.846 L37.595,27.751 C37.5,27.728 37.442,27.634 37.466,27.539 C37.489,27.445 37.588,27.386 37.678,27.409 L50.555,30.504 C50.65,30.527 50.708,30.621 50.684,30.716 C50.664,30.796 50.593,30.851 50.513,30.851 Z" id="Path"></path>
                <path d="M52.279,43.981 C52.232,43.981 52.186,43.962 52.151,43.926 L44.654,35.995 C44.587,35.924 44.591,35.813 44.661,35.746 C44.732,35.68 44.844,35.682 44.91,35.753 L52.407,43.684 C52.474,43.755 52.47,43.866 52.4,43.933 C52.366,43.965 52.323,43.981 52.279,43.981 Z" id="Path"></path>
                <path d="M56.825,39.444 C56.732,39.444 56.653,39.37 56.649,39.276 L55.827,19.632 C55.823,19.534 55.898,19.453 55.996,19.449 C55.997,19.449 56,19.449 56.003,19.449 C56.096,19.449 56.175,19.523 56.179,19.617 L57,39.261 C57.004,39.359 56.929,39.44 56.831,39.444 C56.83,39.444 56.827,39.444 56.825,39.444 Z" id="Path"></path>
                <path d="M55.011,51.816 C55.003,51.816 54.995,51.815 54.985,51.814 C54.889,51.8 54.823,51.711 54.837,51.615 L56.651,39.244 C56.665,39.148 56.742,39.08 56.852,39.096 C56.948,39.11 57.014,39.199 57,39.295 L55.186,51.666 C55.171,51.752 55.097,51.816 55.011,51.816 Z" id="Path"></path>
                <path d="M44.782,36.05 C44.733,36.05 44.683,36.029 44.649,35.989 L37.504,27.695 C37.441,27.621 37.449,27.51 37.522,27.447 C37.596,27.382 37.708,27.391 37.771,27.466 L44.916,35.76 C44.979,35.834 44.971,35.945 44.898,36.008 C44.863,36.036 44.823,36.05 44.782,36.05 Z" id="Path"></path>
                <path d="M37.636,27.756 C37.538,27.756 37.46,27.677 37.46,27.58 L37.46,12.092 C37.46,11.995 37.538,11.916 37.636,11.916 C37.734,11.916 37.812,11.995 37.812,12.092 L37.812,27.58 C37.812,27.677 37.734,27.756 37.636,27.756 Z" id="Path"></path>
                <path d="M42.848,23.408 C42.844,23.408 42.838,23.408 42.833,23.407 C42.737,23.399 42.665,23.314 42.672,23.217 L44.436,2.272 C44.444,2.18 44.521,2.111 44.612,2.111 C44.616,2.111 44.622,2.111 44.627,2.112 C44.723,2.12 44.795,2.205 44.788,2.302 L43.024,23.247 C43.016,23.338 42.939,23.408 42.848,23.408 Z" id="Path"></path>
                <path d="M37.636,12.268 C37.614,12.268 37.591,12.264 37.569,12.255 L24.863,6.996 C24.774,6.958 24.731,6.856 24.768,6.766 C24.804,6.677 24.905,6.635 24.997,6.67 L37.703,11.929 C37.792,11.967 37.835,12.069 37.798,12.159 C37.771,12.227 37.705,12.268 37.636,12.268 Z" id="Path"></path>
                <path d="M30.878,21.904 C30.819,21.904 30.763,21.874 30.728,21.822 L20.186,4.943 C20.135,4.861 20.16,4.752 20.242,4.7 C20.326,4.65 20.433,4.675 20.485,4.756 L31.027,21.634 C31.078,21.716 31.053,21.825 30.971,21.877 C30.943,21.895 30.91,21.904 30.878,21.904 Z" id="Path"></path>
                <path d="M73.34,29.482 C73.299,29.482 73.256,29.468 73.223,29.437 L63.652,20.896 C63.579,20.831 63.572,20.72 63.637,20.648 C63.702,20.575 63.813,20.567 63.886,20.634 L73.457,29.175 C73.53,29.24 73.537,29.351 73.471,29.423 C73.436,29.462 73.388,29.482 73.34,29.482 Z" id="Path"></path>
                <path d="M73.684,36.756 C73.636,36.756 73.588,36.736 73.552,36.697 C73.487,36.625 73.494,36.514 73.567,36.449 L80.876,29.927 C80.946,29.861 81.059,29.869 81.125,29.941 C81.19,30.013 81.183,30.124 81.11,30.189 L73.8,36.711 C73.767,36.742 73.725,36.756 73.684,36.756 Z" id="Path"></path>
            </g>
        </g>
    </g>
</svg>