<?xml version="1.0" encoding="UTF-8"?>
<svg width="96px" height="96px" viewBox="0 0 96 96" version="1.1" xmlns="http://www.w3.org/2000/svg" xmlns:xlink="http://www.w3.org/1999/xlink">
    <!-- Generator: Sketch 52.6 (67491) - http://www.bohemiancoding.com/sketch -->
    <title>noun_Third Eye_65019</title>
    <desc>Created with Sketch.</desc>
    <g id="Page-1" stroke="none" stroke-width="1" fill="none" fill-rule="evenodd">
        <g id="noun_Third-Eye_65019" fill="#FA2EF5">
            <path d="M48,95.5 C21.81,95.5 0.5,74.19 0.5,48 C0.5,21.808 21.81,0.5 48,0.5 C74.19,0.5 95.5,21.808 95.5,48 C95.5,74.19 74.19,95.5 48,95.5 Z M48,7.625 C25.738,7.625 7.625,25.736 7.625,48 C7.625,70.262 25.738,88.374 48,88.374 C70.262,88.374 88.374,70.262 88.374,48 C88.374,25.736 70.262,7.625 48,7.625 Z" id="Shape" fill-rule="nonzero"></path>
            <path d="M48.06,84.396 C40.038,84.396 33.513,77.871 33.513,69.849 L40.639,69.849 C40.639,73.941 43.969,77.27 48.06,77.27 C52.151,77.27 55.481,73.941 55.481,69.849 L62.607,69.849 C62.607,77.87 56.082,84.396 48.06,84.396 Z" id="Path"></path>
            <path d="M48.06,40.577 C40.038,40.577 33.513,34.052 33.513,26.032 C33.513,18.01 40.038,11.485 48.06,11.485 C56.082,11.485 62.607,18.01 62.607,26.032 C62.607,34.052 56.082,40.577 48.06,40.577 Z M48.06,18.608 C43.968,18.608 40.639,21.938 40.639,26.031 C40.639,30.122 43.969,33.452 48.06,33.452 C52.151,33.452 55.481,30.122 55.481,26.031 C55.481,21.938 52.151,18.608 48.06,18.608 Z" id="Shape" fill-rule="nonzero"></path>
            <path d="M25.972,62.664 C17.95,62.664 11.425,56.139 11.425,48.117 C11.425,40.095 17.95,33.57 25.972,33.57 C33.993,33.57 40.519,40.095 40.519,48.117 C40.519,56.139 33.993,62.664 25.972,62.664 Z M25.972,40.694 C21.88,40.694 18.551,44.024 18.551,48.117 C18.551,52.208 21.881,55.538 25.972,55.538 C30.063,55.538 33.393,52.208 33.393,48.117 C33.393,44.023 30.063,40.694 25.972,40.694 Z" id="Shape" fill-rule="nonzero"></path>
            <path d="M70.028,62.547 C62.007,62.547 55.481,56.022 55.481,48 C55.481,39.978 62.006,33.453 70.028,33.453 C78.05,33.453 84.576,39.978 84.576,48 C84.576,56.021 78.051,62.547 70.028,62.547 Z M70.028,40.577 C65.936,40.577 62.607,43.907 62.607,48 C62.607,52.092 65.936,55.421 70.028,55.421 C74.12,55.421 77.45,52.092 77.45,48 C77.45,43.907 74.12,40.577 70.028,40.577 Z" id="Shape" fill-rule="nonzero"></path>
        </g>
    </g>
</svg>