<?xml version="1.0" encoding="UTF-8"?>
<svg width="22px" height="30px" viewBox="0 0 22 30" version="1.1" xmlns="http://www.w3.org/2000/svg" xmlns:xlink="http://www.w3.org/1999/xlink">
    <!-- Generator: Sketch 52.6 (67491) - http://www.bohemiancoding.com/sketch -->
    <title>Group</title>
    <desc>Created with Sketch.</desc>
    <g id="Page-1" stroke="none" stroke-width="1" fill="none" fill-rule="evenodd">
        <g id="noun_keys_2793793" fill="#FFFFFF" fill-rule="nonzero">
            <g id="Group">
                <path d="M5.5,3.5 C4.11928813,3.5 3,4.61928813 3,6 C3,7.38071187 4.11928813,8.5 5.5,8.5 C6.88071187,8.5 8,7.38071187 8,6 C8,4.61928813 6.88071187,3.5 5.5,3.5 Z M5.5,6.83333333 C5.03976271,6.83333333 4.66666667,6.46023729 4.66666667,6 C4.66666667,5.53976271 5.03976271,5.16666667 5.5,5.16666667 C5.96023729,5.16666667 6.33333333,5.53976271 6.33333333,6 C6.33333333,6.46023729 5.96023729,6.83333333 5.5,6.83333333 Z" id="Shape"></path>
                <path d="M16.5,3.5 C15.1192881,3.5 14,4.61928813 14,6 C14,7.38071187 15.1192881,8.5 16.5,8.5 C17.8807119,8.5 19,7.38071187 19,6 C19,4.61928813 17.8807119,3.5 16.5,3.5 Z M16.5,6.83333333 C16.0397627,6.83333333 15.6666667,6.46023729 15.6666667,6 C15.6666667,5.53976271 16.0397627,5.16666667 16.5,5.16666667 C16.9602373,5.16666667 17.3333333,5.53976271 17.3333333,6 C17.3333333,6.46023729 16.9602373,6.83333333 16.5,6.83333333 Z" id="Shape"></path>
                <path d="M16,-8.32667268e-17 C15.8732077,-0.00186201924 15.7473493,0.021949012 15.63,0.07 C12.6699264,1.32020107 9.33007358,1.32020107 6.37,0.07 C6.25265065,0.021949012 6.12679235,-0.00186201924 6,-4.16333634e-16 C2.6862915,-1.19348975e-15 0,2.6862915 0,6 C-8.8817842e-16,9.3137085 2.6862915,12 6,12 L8,12 L8,20 L4,20 C3.44771525,20 3,20.4477153 3,21 L3,29 C3,29.5522847 3.44771525,30 4,30 L8,30 C8.55228475,30 9,29.5522847 9,29 L9,26 L13,26 L13,29 C13,29.5522847 13.4477153,30 14,30 L18,30 C18.5522847,30 19,29.5522847 19,29 L19,21 C19,20.4477153 18.5522847,20 18,20 L14,20 L14,12 L16,12 C19.3137085,12 21.9999999,9.31370846 21.9999999,6 C21.9999999,2.68629154 19.3137085,4.93781037e-08 16,-8.32667268e-17 Z M16,10 L13,10 C12.4477153,10 12,10.4477153 12,11 L12,21 C12,21.5522847 12.4477153,22 13,22 L17,22 L17,28 L15,28 L15,25 C15,24.4477153 14.5522847,24 14,24 L8,24 C7.44771525,24 7,24.4477153 7,25 L7,28 L5,28 L5,22 L9,22 C9.55228475,22 10,21.5522847 10,21 L10,11 C10,10.4477153 9.55228475,10 9,10 L6,10 C3.79086102,10.0497056 1.95970569,8.29913897 1.91000006,6.09 C1.86029443,3.88086102 3.61086102,2.04970566 5.82,2 C9.14628669,3.32474059 12.8537133,3.32474059 16.18,2 C18.389139,2.04970566 20.1397056,3.88086102 20.0899999,6.09 C20.0402943,8.29913897 18.209139,10.0497056 16,10 Z" id="Shape"></path>
            </g>
        </g>
    </g>
</svg>