<?xml version="1.0" encoding="UTF-8"?>
<svg width="158px" height="34px" viewBox="0 0 158 34" version="1.1" xmlns="http://www.w3.org/2000/svg" xmlns:xlink="http://www.w3.org/1999/xlink">
    <!-- Generator: Sketch 52.6 (67491) - http://www.bohemiancoding.com/sketch -->
    <title>inception</title>
    <desc>Created with Sketch.</desc>
    <g id="Page-1" stroke="none" stroke-width="1" fill="none" fill-rule="evenodd">
        <path d="M1.1035,3.989 C0.83949868,3.989 0.614000935,3.89550093 0.427,3.7085 C0.239999065,3.52149907 0.1465,3.29600132 0.1465,3.032 L0.1465,1.283 C0.1465,1.04099879 0.239999065,0.82100099 0.427,0.623 C0.614000935,0.42499901 0.83949868,0.326 1.1035,0.326 L2.8525,0.326 C3.11650132,0.326 3.34199906,0.42499901 3.529,0.623 C3.71600094,0.82100099 3.8095,1.04099879 3.8095,1.283 L3.8095,3.032 C3.8095,3.29600132 3.71600094,3.52149907 3.529,3.7085 C3.34199906,3.89550093 3.11650132,3.989 2.8525,3.989 L1.1035,3.989 Z M1.1035,26 C0.83949868,26 0.614000935,25.9065009 0.427,25.7195 C0.239999065,25.5324991 0.1465,25.3070013 0.1465,25.043 L0.1465,8.609 C0.1465,8.36699879 0.239999065,8.14700099 0.427,7.949 C0.614000935,7.75099901 0.83949868,7.652 1.1035,7.652 L2.8525,7.652 C3.11650132,7.652 3.34199906,7.75099901 3.529,7.949 C3.71600094,8.14700099 3.8095,8.36699879 3.8095,8.609 L3.8095,25.043 C3.8095,25.3070013 3.71600094,25.5324991 3.529,25.7195 C3.34199906,25.9065009 3.11650132,26 2.8525,26 L1.1035,26 Z M12.0925,26 C11.8284987,26 11.6030009,25.9065009 11.416,25.7195 C11.2289991,25.5324991 11.1355,25.3070013 11.1355,25.043 L11.1355,8.609 C11.1355,8.36699879 11.2289991,8.14700099 11.416,7.949 C11.6030009,7.75099901 11.8284987,7.652 12.0925,7.652 L21.2005,7.652 C21.4425012,7.652 21.6569991,7.75099901 21.844,7.949 C22.0310009,8.14700099 22.1245,8.36699879 22.1245,8.609 L22.1245,10.391 C22.1245,10.6330012 22.223499,10.852999 22.4215,11.051 C22.619501,11.249001 22.8394988,11.348 23.0815,11.348 L24.8635,11.348 C25.1055012,11.348 25.325499,11.4414991 25.5235,11.6285 C25.721501,11.8155009 25.8205,12.0299988 25.8205,12.272 L25.8205,25.043 C25.8205,25.3070013 25.721501,25.5324991 25.5235,25.7195 C25.325499,25.9065009 25.1055012,26 24.8635,26 L23.0815,26 C22.8394988,26 22.619501,25.9065009 22.4215,25.7195 C22.223499,25.5324991 22.1245,25.3070013 22.1245,25.043 L22.1245,12.272 C22.1245,12.0299988 22.0310009,11.8155009 21.844,11.6285 C21.6569991,11.4414991 21.4425012,11.348 21.2005,11.348 L15.7555,11.348 C15.5134988,11.348 15.293501,11.4414991 15.0955,11.6285 C14.897499,11.8155009 14.7985,12.0299988 14.7985,12.272 L14.7985,25.043 C14.7985,25.3070013 14.7050009,25.5324991 14.518,25.7195 C14.3309991,25.9065009 14.1055013,26 13.8415,26 L12.0925,26 Z M37.7665,26 C37.5244988,26 37.304501,25.9065009 37.1065,25.7195 C36.908499,25.5324991 36.8095,25.3070013 36.8095,25.043 L36.8095,23.294 C36.8095,23.0299987 36.7160009,22.8045009 36.529,22.6175 C36.3419991,22.4304991 36.1165013,22.337 35.8525,22.337 L34.1035,22.337 C33.8394987,22.337 33.6140009,22.2435009 33.427,22.0565 C33.2399991,21.8694991 33.1465,21.6440013 33.1465,21.38 L33.1465,12.272 C33.1465,12.0299988 33.2399991,11.8155009 33.427,11.6285 C33.6140009,11.4414991 33.8394987,11.348 34.1035,11.348 L35.8525,11.348 C36.1165013,11.348 36.3419991,11.249001 36.529,11.051 C36.7160009,10.852999 36.8095,10.6330012 36.8095,10.391 L36.8095,8.609 C36.8095,8.36699879 36.908499,8.14700099 37.1065,7.949 C37.304501,7.75099901 37.5244988,7.652 37.7665,7.652 L43.2115,7.652 C43.4535012,7.652 43.6679991,7.75099901 43.855,7.949 C44.0420009,8.14700099 44.1355,8.36699879 44.1355,8.609 L44.1355,10.391 C44.1355,10.6330012 44.0420009,10.852999 43.855,11.051 C43.6679991,11.249001 43.4535012,11.348 43.2115,11.348 L37.7665,11.348 C37.5244988,11.348 37.304501,11.4414991 37.1065,11.6285 C36.908499,11.8155009 36.8095,12.0299988 36.8095,12.272 L36.8095,21.38 C36.8095,21.6440013 36.908499,21.8694991 37.1065,22.0565 C37.304501,22.2435009 37.5244988,22.337 37.7665,22.337 L43.2115,22.337 C43.4535012,22.337 43.6679991,22.4304991 43.855,22.6175 C44.0420009,22.8045009 44.1355,23.0299987 44.1355,23.294 L44.1355,25.043 C44.1355,25.3070013 44.0420009,25.5324991 43.855,25.7195 C43.6679991,25.9065009 43.4535012,26 43.2115,26 L37.7665,26 Z M56.1145,26 C55.8724988,26 55.652501,25.9065009 55.4545,25.7195 C55.256499,25.5324991 55.1575,25.3070013 55.1575,25.043 L55.1575,23.294 C55.1575,23.0299987 55.0640009,22.8045009 54.877,22.6175 C54.6899991,22.4304991 54.4645013,22.337 54.2005,22.337 L52.4515,22.337 C52.1874987,22.337 51.9620009,22.2435009 51.775,22.0565 C51.5879991,21.8694991 51.4945,21.6440013 51.4945,21.38 L51.4945,12.272 C51.4945,12.0299988 51.5879991,11.8155009 51.775,11.6285 C51.9620009,11.4414991 52.1874987,11.348 52.4515,11.348 L54.2005,11.348 C54.4645013,11.348 54.6899991,11.249001 54.877,11.051 C55.0640009,10.852999 55.1575,10.6330012 55.1575,10.391 L55.1575,8.609 C55.1575,8.36699879 55.256499,8.14700099 55.4545,7.949 C55.652501,7.75099901 55.8724988,7.652 56.1145,7.652 L61.5595,7.652 C61.8015012,7.652 62.0159991,7.75099901 62.203,7.949 C62.3900009,8.14700099 62.4835,8.36699879 62.4835,8.609 L62.4835,10.391 C62.4835,10.6330012 62.582499,10.852999 62.7805,11.051 C62.978501,11.249001 63.1984988,11.348 63.4405,11.348 L65.2225,11.348 C65.4645012,11.348 65.684499,11.4414991 65.8825,11.6285 C66.080501,11.8155009 66.1795,12.0299988 66.1795,12.272 L66.1795,17.717 C66.1795,17.9590012 66.080501,18.178999 65.8825,18.377 C65.684499,18.575001 65.4645012,18.674 65.2225,18.674 L56.1145,18.674 C55.8724988,18.674 55.652501,18.7674991 55.4545,18.9545 C55.256499,19.1415009 55.1575,19.3669987 55.1575,19.631 L55.1575,21.38 C55.1575,21.6440013 55.256499,21.8694991 55.4545,22.0565 C55.652501,22.2435009 55.8724988,22.337 56.1145,22.337 L61.5595,22.337 C61.8015012,22.337 62.0159991,22.4304991 62.203,22.6175 C62.3900009,22.8045009 62.4835,23.0299987 62.4835,23.294 L62.4835,25.043 C62.4835,25.3070013 62.3900009,25.5324991 62.203,25.7195 C62.0159991,25.9065009 61.8015012,26 61.5595,26 L56.1145,26 Z M61.5595,15.011 C61.8015012,15.011 62.0159991,14.912001 62.203,14.714 C62.3900009,14.515999 62.4835,14.2960012 62.4835,14.054 L62.4835,12.272 C62.4835,12.0299988 62.3900009,11.8155009 62.203,11.6285 C62.0159991,11.4414991 61.8015012,11.348 61.5595,11.348 L56.1145,11.348 C55.8724988,11.348 55.652501,11.4414991 55.4545,11.6285 C55.256499,11.8155009 55.1575,12.0299988 55.1575,12.272 L55.1575,14.054 C55.1575,14.2960012 55.256499,14.515999 55.4545,14.714 C55.652501,14.912001 55.8724988,15.011 56.1145,15.011 L61.5595,15.011 Z M74.4625,33.326 C74.1984987,33.326 73.9730009,33.2325009 73.786,33.0455 C73.5989991,32.8584991 73.5055,32.6330013 73.5055,32.369 L73.5055,8.609 C73.5055,8.36699879 73.5989991,8.14700099 73.786,7.949 C73.9730009,7.75099901 74.1984987,7.652 74.4625,7.652 L83.5705,7.652 C83.8125012,7.652 84.0269991,7.75099901 84.214,7.949 C84.4010009,8.14700099 84.4945,8.36699879 84.4945,8.609 L84.4945,10.391 C84.4945,10.6330012 84.593499,10.852999 84.7915,11.051 C84.989501,11.249001 85.2094988,11.348 85.4515,11.348 L87.2335,11.348 C87.4755012,11.348 87.695499,11.4414991 87.8935,11.6285 C88.091501,11.8155009 88.1905,12.0299988 88.1905,12.272 L88.1905,21.38 C88.1905,21.6440013 88.091501,21.8694991 87.8935,22.0565 C87.695499,22.2435009 87.4755012,22.337 87.2335,22.337 L85.4515,22.337 C85.2094988,22.337 84.989501,22.4304991 84.7915,22.6175 C84.593499,22.8045009 84.4945,23.0299987 84.4945,23.294 L84.4945,25.043 C84.4945,25.3070013 84.4010009,25.5324991 84.214,25.7195 C84.0269991,25.9065009 83.8125012,26 83.5705,26 L78.1255,26 C77.8834988,26 77.663501,26.0934991 77.4655,26.2805 C77.267499,26.4675009 77.1685,26.6929987 77.1685,26.957 L77.1685,32.369 C77.1685,32.6330013 77.0750009,32.8584991 76.888,33.0455 C76.7009991,33.2325009 76.4755013,33.326 76.2115,33.326 L74.4625,33.326 Z M83.5705,22.337 C83.8125012,22.337 84.0269991,22.2435009 84.214,22.0565 C84.4010009,21.8694991 84.4945,21.6440013 84.4945,21.38 L84.4945,12.272 C84.4945,12.0299988 84.4010009,11.8155009 84.214,11.6285 C84.0269991,11.4414991 83.8125012,11.348 83.5705,11.348 L78.1255,11.348 C77.8834988,11.348 77.663501,11.4414991 77.4655,11.6285 C77.267499,11.8155009 77.1685,12.0299988 77.1685,12.272 L77.1685,21.38 C77.1685,21.6440013 77.267499,21.8694991 77.4655,22.0565 C77.663501,22.2435009 77.8834988,22.337 78.1255,22.337 L83.5705,22.337 Z M100.1365,26 C99.8944988,26 99.674501,25.9065009 99.4765,25.7195 C99.278499,25.5324991 99.1795,25.3070013 99.1795,25.043 L99.1795,23.294 C99.1795,23.0299987 99.0860009,22.8045009 98.899,22.6175 C98.7119991,22.4304991 98.4865013,22.337 98.2225,22.337 L96.4735,22.337 C96.2094987,22.337 95.9840009,22.2435009 95.797,22.0565 C95.6099991,21.8694991 95.5165,21.6440013 95.5165,21.38 L95.5165,12.272 C95.5165,12.0299988 95.4230009,11.8155009 95.236,11.6285 C95.0489991,11.4414991 94.8235013,11.348 94.5595,11.348 L92.8105,11.348 C92.5464987,11.348 92.3210009,11.249001 92.134,11.051 C91.9469991,10.852999 91.8535,10.6330012 91.8535,10.391 L91.8535,8.609 C91.8535,8.36699879 91.9469991,8.14700099 92.134,7.949 C92.3210009,7.75099901 92.5464987,7.652 92.8105,7.652 L94.5595,7.652 C94.8235013,7.652 95.0489991,7.55850093 95.236,7.3715 C95.4230009,7.18449907 95.5165,6.97000121 95.5165,6.728 L95.5165,4.946 C95.5165,4.70399879 95.6099991,4.48400099 95.797,4.286 C95.9840009,4.08799901 96.2094987,3.989 96.4735,3.989 L98.2225,3.989 C98.4865013,3.989 98.7119991,4.08799901 98.899,4.286 C99.0860009,4.48400099 99.1795,4.70399879 99.1795,4.946 L99.1795,6.728 C99.1795,6.97000121 99.278499,7.18449907 99.4765,7.3715 C99.674501,7.55850093 99.8944988,7.652 100.1365,7.652 L101.8855,7.652 C102.149501,7.652 102.374999,7.75099901 102.562,7.949 C102.749001,8.14700099 102.8425,8.36699879 102.8425,8.609 L102.8425,10.391 C102.8425,10.6330012 102.749001,10.852999 102.562,11.051 C102.374999,11.249001 102.149501,11.348 101.8855,11.348 L100.1365,11.348 C99.8944988,11.348 99.674501,11.4414991 99.4765,11.6285 C99.278499,11.8155009 99.1795,12.0299988 99.1795,12.272 L99.1795,21.38 C99.1795,21.6440013 99.278499,21.8694991 99.4765,22.0565 C99.674501,22.2435009 99.8944988,22.337 100.1365,22.337 L101.8855,22.337 C102.149501,22.337 102.374999,22.4304991 102.562,22.6175 C102.749001,22.8045009 102.8425,23.0299987 102.8425,23.294 L102.8425,25.043 C102.8425,25.3070013 102.749001,25.5324991 102.562,25.7195 C102.374999,25.9065009 102.149501,26 101.8855,26 L100.1365,26 Z M111.1255,3.989 C110.861499,3.989 110.636001,3.89550093 110.449,3.7085 C110.261999,3.52149907 110.1685,3.29600132 110.1685,3.032 L110.1685,1.283 C110.1685,1.04099879 110.261999,0.82100099 110.449,0.623 C110.636001,0.42499901 110.861499,0.326 111.1255,0.326 L112.8745,0.326 C113.138501,0.326 113.363999,0.42499901 113.551,0.623 C113.738001,0.82100099 113.8315,1.04099879 113.8315,1.283 L113.8315,3.032 C113.8315,3.29600132 113.738001,3.52149907 113.551,3.7085 C113.363999,3.89550093 113.138501,3.989 112.8745,3.989 L111.1255,3.989 Z M111.1255,26 C110.861499,26 110.636001,25.9065009 110.449,25.7195 C110.261999,25.5324991 110.1685,25.3070013 110.1685,25.043 L110.1685,8.609 C110.1685,8.36699879 110.261999,8.14700099 110.449,7.949 C110.636001,7.75099901 110.861499,7.652 111.1255,7.652 L112.8745,7.652 C113.138501,7.652 113.363999,7.75099901 113.551,7.949 C113.738001,8.14700099 113.8315,8.36699879 113.8315,8.609 L113.8315,25.043 C113.8315,25.3070013 113.738001,25.5324991 113.551,25.7195 C113.363999,25.9065009 113.138501,26 112.8745,26 L111.1255,26 Z M125.7775,26 C125.535499,26 125.315501,25.9065009 125.1175,25.7195 C124.919499,25.5324991 124.8205,25.3070013 124.8205,25.043 L124.8205,23.294 C124.8205,23.0299987 124.727001,22.8045009 124.54,22.6175 C124.352999,22.4304991 124.127501,22.337 123.8635,22.337 L122.1145,22.337 C121.850499,22.337 121.625001,22.2435009 121.438,22.0565 C121.250999,21.8694991 121.1575,21.6440013 121.1575,21.38 L121.1575,12.272 C121.1575,12.0299988 121.250999,11.8155009 121.438,11.6285 C121.625001,11.4414991 121.850499,11.348 122.1145,11.348 L123.8635,11.348 C124.127501,11.348 124.352999,11.249001 124.54,11.051 C124.727001,10.852999 124.8205,10.6330012 124.8205,10.391 L124.8205,8.609 C124.8205,8.36699879 124.919499,8.14700099 125.1175,7.949 C125.315501,7.75099901 125.535499,7.652 125.7775,7.652 L131.2225,7.652 C131.464501,7.652 131.678999,7.75099901 131.866,7.949 C132.053001,8.14700099 132.1465,8.36699879 132.1465,8.609 L132.1465,10.391 C132.1465,10.6330012 132.245499,10.852999 132.4435,11.051 C132.641501,11.249001 132.861499,11.348 133.1035,11.348 L134.8855,11.348 C135.127501,11.348 135.347499,11.4414991 135.5455,11.6285 C135.743501,11.8155009 135.8425,12.0299988 135.8425,12.272 L135.8425,21.38 C135.8425,21.6440013 135.743501,21.8694991 135.5455,22.0565 C135.347499,22.2435009 135.127501,22.337 134.8855,22.337 L133.1035,22.337 C132.861499,22.337 132.641501,22.4304991 132.4435,22.6175 C132.245499,22.8045009 132.1465,23.0299987 132.1465,23.294 L132.1465,25.043 C132.1465,25.3070013 132.053001,25.5324991 131.866,25.7195 C131.678999,25.9065009 131.464501,26 131.2225,26 L125.7775,26 Z M131.2225,22.337 C131.464501,22.337 131.678999,22.2435009 131.866,22.0565 C132.053001,21.8694991 132.1465,21.6440013 132.1465,21.38 L132.1465,12.272 C132.1465,12.0299988 132.053001,11.8155009 131.866,11.6285 C131.678999,11.4414991 131.464501,11.348 131.2225,11.348 L125.7775,11.348 C125.535499,11.348 125.315501,11.4414991 125.1175,11.6285 C124.919499,11.8155009 124.8205,12.0299988 124.8205,12.272 L124.8205,21.38 C124.8205,21.6440013 124.919499,21.8694991 125.1175,22.0565 C125.315501,22.2435009 125.535499,22.337 125.7775,22.337 L131.2225,22.337 Z M144.1255,26 C143.861499,26 143.636001,25.9065009 143.449,25.7195 C143.261999,25.5324991 143.1685,25.3070013 143.1685,25.043 L143.1685,8.609 C143.1685,8.36699879 143.261999,8.14700099 143.449,7.949 C143.636001,7.75099901 143.861499,7.652 144.1255,7.652 L153.2335,7.652 C153.475501,7.652 153.689999,7.75099901 153.877,7.949 C154.064001,8.14700099 154.1575,8.36699879 154.1575,8.609 L154.1575,10.391 C154.1575,10.6330012 154.256499,10.852999 154.4545,11.051 C154.652501,11.249001 154.872499,11.348 155.1145,11.348 L156.8965,11.348 C157.138501,11.348 157.358499,11.4414991 157.5565,11.6285 C157.754501,11.8155009 157.8535,12.0299988 157.8535,12.272 L157.8535,25.043 C157.8535,25.3070013 157.754501,25.5324991 157.5565,25.7195 C157.358499,25.9065009 157.138501,26 156.8965,26 L155.1145,26 C154.872499,26 154.652501,25.9065009 154.4545,25.7195 C154.256499,25.5324991 154.1575,25.3070013 154.1575,25.043 L154.1575,12.272 C154.1575,12.0299988 154.064001,11.8155009 153.877,11.6285 C153.689999,11.4414991 153.475501,11.348 153.2335,11.348 L147.7885,11.348 C147.546499,11.348 147.326501,11.4414991 147.1285,11.6285 C146.930499,11.8155009 146.8315,12.0299988 146.8315,12.272 L146.8315,25.043 C146.8315,25.3070013 146.738001,25.5324991 146.551,25.7195 C146.363999,25.9065009 146.138501,26 145.8745,26 L144.1255,26 Z" id="inception" fill="#FA2EF5"></path>
    </g>
</svg>